G04 #@! TF.GenerationSoftware,KiCad,Pcbnew,(5.1.5)-3*
G04 #@! TF.CreationDate,2021-12-30T11:40:28+01:00*
G04 #@! TF.ProjectId,mPCIe_HAT,6d504349-655f-4484-9154-2e6b69636164,rev?*
G04 #@! TF.SameCoordinates,PX7094cd0PY79a4230*
G04 #@! TF.FileFunction,Legend,Bot*
G04 #@! TF.FilePolarity,Positive*
%FSLAX46Y46*%
G04 Gerber Fmt 4.6, Leading zero omitted, Abs format (unit mm)*
G04 Created by KiCad (PCBNEW (5.1.5)-3) date 2021-12-30 11:40:28*
%MOMM*%
%LPD*%
G04 APERTURE LIST*
%ADD10C,0.200000*%
%ADD11C,0.175000*%
%ADD12C,0.100000*%
%ADD13C,0.170000*%
%ADD14C,0.120000*%
%ADD15C,0.010000*%
%ADD16C,0.160000*%
G04 APERTURE END LIST*
D10*
X50251190Y47232143D02*
X49984523Y47232143D01*
X49870238Y46813096D02*
X50251190Y46813096D01*
X50251190Y47613096D01*
X49870238Y47613096D01*
X49527380Y47232143D02*
X49260714Y47232143D01*
X49146428Y46813096D02*
X49527380Y46813096D01*
X49527380Y47613096D01*
X49146428Y47613096D01*
X48841666Y47041667D02*
X48460714Y47041667D01*
X48917857Y46813096D02*
X48651190Y47613096D01*
X48384523Y46813096D01*
X48117857Y46813096D02*
X48117857Y47613096D01*
X47927380Y47613096D01*
X47813095Y47575000D01*
X47736904Y47498810D01*
X47698809Y47422620D01*
X47660714Y47270239D01*
X47660714Y47155953D01*
X47698809Y47003572D01*
X47736904Y46927381D01*
X47813095Y46851191D01*
X47927380Y46813096D01*
X48117857Y46813096D01*
X46860714Y46813096D02*
X47127380Y47194048D01*
X47317857Y46813096D02*
X47317857Y47613096D01*
X47013095Y47613096D01*
X46936904Y47575000D01*
X46898809Y47536905D01*
X46860714Y47460715D01*
X46860714Y47346429D01*
X46898809Y47270239D01*
X46936904Y47232143D01*
X47013095Y47194048D01*
X47317857Y47194048D01*
X36800000Y46913096D02*
X37180952Y46913096D01*
X37180952Y47713096D01*
X36533333Y47332143D02*
X36266666Y47332143D01*
X36152380Y46913096D02*
X36533333Y46913096D01*
X36533333Y47713096D01*
X36152380Y47713096D01*
X35809523Y46913096D02*
X35809523Y47713096D01*
X35619047Y47713096D01*
X35504761Y47675000D01*
X35428571Y47598810D01*
X35390476Y47522620D01*
X35352380Y47370239D01*
X35352380Y47255953D01*
X35390476Y47103572D01*
X35428571Y47027381D01*
X35504761Y46951191D01*
X35619047Y46913096D01*
X35809523Y46913096D01*
X35200000Y46836905D02*
X34590476Y46836905D01*
X34400000Y46913096D02*
X34400000Y47713096D01*
X34209523Y47713096D01*
X34095238Y47675000D01*
X34019047Y47598810D01*
X33980952Y47522620D01*
X33942857Y47370239D01*
X33942857Y47255953D01*
X33980952Y47103572D01*
X34019047Y47027381D01*
X34095238Y46951191D01*
X34209523Y46913096D01*
X34400000Y46913096D01*
X33676190Y47713096D02*
X33142857Y47713096D01*
X33485714Y46913096D01*
X50119047Y19501191D02*
X50004761Y19463096D01*
X49814285Y19463096D01*
X49738095Y19501191D01*
X49700000Y19539286D01*
X49661904Y19615477D01*
X49661904Y19691667D01*
X49700000Y19767858D01*
X49738095Y19805953D01*
X49814285Y19844048D01*
X49966666Y19882143D01*
X50042857Y19920239D01*
X50080952Y19958334D01*
X50119047Y20034524D01*
X50119047Y20110715D01*
X50080952Y20186905D01*
X50042857Y20225000D01*
X49966666Y20263096D01*
X49776190Y20263096D01*
X49661904Y20225000D01*
X49319047Y19463096D02*
X49319047Y20263096D01*
X48938095Y19463096D02*
X48938095Y20263096D01*
X48671428Y19691667D01*
X48404761Y20263096D01*
X48404761Y19463096D01*
X48138095Y20263096D02*
X47871428Y19463096D01*
X47604761Y20263096D01*
X47338095Y19463096D02*
X47338095Y20263096D01*
X47033333Y20263096D01*
X46957142Y20225000D01*
X46919047Y20186905D01*
X46880952Y20110715D01*
X46880952Y19996429D01*
X46919047Y19920239D01*
X46957142Y19882143D01*
X47033333Y19844048D01*
X47338095Y19844048D01*
X40166666Y17963096D02*
X40166666Y18763096D01*
X39861904Y18763096D01*
X39785714Y18725000D01*
X39747619Y18686905D01*
X39709523Y18610715D01*
X39709523Y18496429D01*
X39747619Y18420239D01*
X39785714Y18382143D01*
X39861904Y18344048D01*
X40166666Y18344048D01*
X39214285Y18763096D02*
X39061904Y18763096D01*
X38985714Y18725000D01*
X38909523Y18648810D01*
X38871428Y18496429D01*
X38871428Y18229762D01*
X38909523Y18077381D01*
X38985714Y18001191D01*
X39061904Y17963096D01*
X39214285Y17963096D01*
X39290476Y18001191D01*
X39366666Y18077381D01*
X39404761Y18229762D01*
X39404761Y18496429D01*
X39366666Y18648810D01*
X39290476Y18725000D01*
X39214285Y18763096D01*
X38604761Y18763096D02*
X38414285Y17963096D01*
X38261904Y18534524D01*
X38109523Y17963096D01*
X37919047Y18763096D01*
X37614285Y18382143D02*
X37347619Y18382143D01*
X37233333Y17963096D02*
X37614285Y17963096D01*
X37614285Y18763096D01*
X37233333Y18763096D01*
X36890476Y17963096D02*
X36890476Y18763096D01*
X36433333Y17963096D01*
X36433333Y18763096D01*
X32530952Y23363096D02*
X32530952Y24163096D01*
X32226190Y24163096D01*
X32150000Y24125000D01*
X32111904Y24086905D01*
X32073809Y24010715D01*
X32073809Y23896429D01*
X32111904Y23820239D01*
X32150000Y23782143D01*
X32226190Y23744048D01*
X32530952Y23744048D01*
X31730952Y23363096D02*
X31730952Y24163096D01*
X30892857Y23363096D02*
X31159523Y23744048D01*
X31350000Y23363096D02*
X31350000Y24163096D01*
X31045238Y24163096D01*
X30969047Y24125000D01*
X30930952Y24086905D01*
X30892857Y24010715D01*
X30892857Y23896429D01*
X30930952Y23820239D01*
X30969047Y23782143D01*
X31045238Y23744048D01*
X31350000Y23744048D01*
X30626190Y24163096D02*
X30092857Y23363096D01*
X30092857Y24163096D02*
X30626190Y23363096D01*
X29788095Y23363096D02*
X29788095Y24163096D01*
X29597619Y24163096D01*
X29483333Y24125000D01*
X29407142Y24048810D01*
X29369047Y23972620D01*
X29330952Y23820239D01*
X29330952Y23705953D01*
X29369047Y23553572D01*
X29407142Y23477381D01*
X29483333Y23401191D01*
X29597619Y23363096D01*
X29788095Y23363096D01*
X32435714Y25513096D02*
X32435714Y26313096D01*
X32130952Y26313096D01*
X32054761Y26275000D01*
X32016666Y26236905D01*
X31978571Y26160715D01*
X31978571Y26046429D01*
X32016666Y25970239D01*
X32054761Y25932143D01*
X32130952Y25894048D01*
X32435714Y25894048D01*
X31635714Y25513096D02*
X31635714Y26313096D01*
X31369047Y26313096D02*
X30911904Y26313096D01*
X31140476Y25513096D02*
X31140476Y26313096D01*
X30721428Y26313096D02*
X30188095Y25513096D01*
X30188095Y26313096D02*
X30721428Y25513096D01*
X29883333Y25513096D02*
X29883333Y26313096D01*
X29692857Y26313096D01*
X29578571Y26275000D01*
X29502380Y26198810D01*
X29464285Y26122620D01*
X29426190Y25970239D01*
X29426190Y25855953D01*
X29464285Y25703572D01*
X29502380Y25627381D01*
X29578571Y25551191D01*
X29692857Y25513096D01*
X29883333Y25513096D01*
X32435714Y28063096D02*
X32435714Y28863096D01*
X32130952Y28863096D01*
X32054761Y28825000D01*
X32016666Y28786905D01*
X31978571Y28710715D01*
X31978571Y28596429D01*
X32016666Y28520239D01*
X32054761Y28482143D01*
X32130952Y28444048D01*
X32435714Y28444048D01*
X31635714Y28063096D02*
X31635714Y28863096D01*
X30797619Y28139286D02*
X30835714Y28101191D01*
X30950000Y28063096D01*
X31026190Y28063096D01*
X31140476Y28101191D01*
X31216666Y28177381D01*
X31254761Y28253572D01*
X31292857Y28405953D01*
X31292857Y28520239D01*
X31254761Y28672620D01*
X31216666Y28748810D01*
X31140476Y28825000D01*
X31026190Y28863096D01*
X30950000Y28863096D01*
X30835714Y28825000D01*
X30797619Y28786905D01*
X30569047Y28863096D02*
X30111904Y28863096D01*
X30340476Y28063096D02*
X30340476Y28863096D01*
X29883333Y28101191D02*
X29769047Y28063096D01*
X29578571Y28063096D01*
X29502380Y28101191D01*
X29464285Y28139286D01*
X29426190Y28215477D01*
X29426190Y28291667D01*
X29464285Y28367858D01*
X29502380Y28405953D01*
X29578571Y28444048D01*
X29730952Y28482143D01*
X29807142Y28520239D01*
X29845238Y28558334D01*
X29883333Y28634524D01*
X29883333Y28710715D01*
X29845238Y28786905D01*
X29807142Y28825000D01*
X29730952Y28863096D01*
X29540476Y28863096D01*
X29426190Y28825000D01*
D11*
X32041666Y31239286D02*
X32075000Y31201191D01*
X32175000Y31163096D01*
X32241666Y31163096D01*
X32341666Y31201191D01*
X32408333Y31277381D01*
X32441666Y31353572D01*
X32475000Y31505953D01*
X32475000Y31620239D01*
X32441666Y31772620D01*
X32408333Y31848810D01*
X32341666Y31925000D01*
X32241666Y31963096D01*
X32175000Y31963096D01*
X32075000Y31925000D01*
X32041666Y31886905D01*
X31741666Y31582143D02*
X31508333Y31582143D01*
X31408333Y31163096D02*
X31741666Y31163096D01*
X31741666Y31963096D01*
X31408333Y31963096D01*
X30741666Y31925000D02*
X30808333Y31963096D01*
X30908333Y31963096D01*
X31008333Y31925000D01*
X31075000Y31848810D01*
X31108333Y31772620D01*
X31141666Y31620239D01*
X31141666Y31505953D01*
X31108333Y31353572D01*
X31075000Y31277381D01*
X31008333Y31201191D01*
X30908333Y31163096D01*
X30841666Y31163096D01*
X30741666Y31201191D01*
X30708333Y31239286D01*
X30708333Y31505953D01*
X30841666Y31505953D01*
X30408333Y31163096D02*
X30408333Y31963096D01*
X30141666Y31963096D01*
X30075000Y31925000D01*
X30041666Y31886905D01*
X30008333Y31810715D01*
X30008333Y31696429D01*
X30041666Y31620239D01*
X30075000Y31582143D01*
X30141666Y31544048D01*
X30408333Y31544048D01*
X29341666Y31163096D02*
X29741666Y31163096D01*
X29541666Y31163096D02*
X29541666Y31963096D01*
X29608333Y31848810D01*
X29675000Y31772620D01*
X29741666Y31734524D01*
X29108333Y31963096D02*
X28641666Y31963096D01*
X28941666Y31163096D01*
D10*
X31895238Y33764286D02*
X31933333Y33726191D01*
X32047619Y33688096D01*
X32123809Y33688096D01*
X32238095Y33726191D01*
X32314285Y33802381D01*
X32352380Y33878572D01*
X32390476Y34030953D01*
X32390476Y34145239D01*
X32352380Y34297620D01*
X32314285Y34373810D01*
X32238095Y34450000D01*
X32123809Y34488096D01*
X32047619Y34488096D01*
X31933333Y34450000D01*
X31895238Y34411905D01*
X31552380Y34107143D02*
X31285714Y34107143D01*
X31171428Y33688096D02*
X31552380Y33688096D01*
X31552380Y34488096D01*
X31171428Y34488096D01*
X30676190Y34488096D02*
X30600000Y34488096D01*
X30523809Y34450000D01*
X30485714Y34411905D01*
X30447619Y34335715D01*
X30409523Y34183334D01*
X30409523Y33992858D01*
X30447619Y33840477D01*
X30485714Y33764286D01*
X30523809Y33726191D01*
X30600000Y33688096D01*
X30676190Y33688096D01*
X30752380Y33726191D01*
X30790476Y33764286D01*
X30828571Y33840477D01*
X30866666Y33992858D01*
X30866666Y34183334D01*
X30828571Y34335715D01*
X30790476Y34411905D01*
X30752380Y34450000D01*
X30676190Y34488096D01*
X32407142Y36213096D02*
X32407142Y37013096D01*
X32140476Y36441667D01*
X31873809Y37013096D01*
X31873809Y36213096D01*
X31340476Y37013096D02*
X31188095Y37013096D01*
X31111904Y36975000D01*
X31035714Y36898810D01*
X30997619Y36746429D01*
X30997619Y36479762D01*
X31035714Y36327381D01*
X31111904Y36251191D01*
X31188095Y36213096D01*
X31340476Y36213096D01*
X31416666Y36251191D01*
X31492857Y36327381D01*
X31530952Y36479762D01*
X31530952Y36746429D01*
X31492857Y36898810D01*
X31416666Y36975000D01*
X31340476Y37013096D01*
X30692857Y36251191D02*
X30578571Y36213096D01*
X30388095Y36213096D01*
X30311904Y36251191D01*
X30273809Y36289286D01*
X30235714Y36365477D01*
X30235714Y36441667D01*
X30273809Y36517858D01*
X30311904Y36555953D01*
X30388095Y36594048D01*
X30540476Y36632143D01*
X30616666Y36670239D01*
X30654761Y36708334D01*
X30692857Y36784524D01*
X30692857Y36860715D01*
X30654761Y36936905D01*
X30616666Y36975000D01*
X30540476Y37013096D01*
X30350000Y37013096D01*
X30235714Y36975000D01*
X29892857Y36213096D02*
X29892857Y37013096D01*
X32407142Y38688096D02*
X32407142Y39488096D01*
X32140476Y38916667D01*
X31873809Y39488096D01*
X31873809Y38688096D01*
X31492857Y38688096D02*
X31492857Y39488096D01*
X31150000Y38726191D02*
X31035714Y38688096D01*
X30845238Y38688096D01*
X30769047Y38726191D01*
X30730952Y38764286D01*
X30692857Y38840477D01*
X30692857Y38916667D01*
X30730952Y38992858D01*
X30769047Y39030953D01*
X30845238Y39069048D01*
X30997619Y39107143D01*
X31073809Y39145239D01*
X31111904Y39183334D01*
X31150000Y39259524D01*
X31150000Y39335715D01*
X31111904Y39411905D01*
X31073809Y39450000D01*
X30997619Y39488096D01*
X30807142Y39488096D01*
X30692857Y39450000D01*
X30197619Y39488096D02*
X30045238Y39488096D01*
X29969047Y39450000D01*
X29892857Y39373810D01*
X29854761Y39221429D01*
X29854761Y38954762D01*
X29892857Y38802381D01*
X29969047Y38726191D01*
X30045238Y38688096D01*
X30197619Y38688096D01*
X30273809Y38726191D01*
X30350000Y38802381D01*
X30388095Y38954762D01*
X30388095Y39221429D01*
X30350000Y39373810D01*
X30273809Y39450000D01*
X30197619Y39488096D01*
X31976190Y41039286D02*
X32014285Y41001191D01*
X32128571Y40963096D01*
X32204761Y40963096D01*
X32319047Y41001191D01*
X32395238Y41077381D01*
X32433333Y41153572D01*
X32471428Y41305953D01*
X32471428Y41420239D01*
X32433333Y41572620D01*
X32395238Y41648810D01*
X32319047Y41725000D01*
X32204761Y41763096D01*
X32128571Y41763096D01*
X32014285Y41725000D01*
X31976190Y41686905D01*
X31252380Y40963096D02*
X31633333Y40963096D01*
X31633333Y41763096D01*
X30985714Y40963096D02*
X30985714Y41763096D01*
X30528571Y40963096D02*
X30871428Y41420239D01*
X30528571Y41763096D02*
X30985714Y41305953D01*
X41090476Y39388096D02*
X40595238Y39388096D01*
X40861904Y39083334D01*
X40747619Y39083334D01*
X40671428Y39045239D01*
X40633333Y39007143D01*
X40595238Y38930953D01*
X40595238Y38740477D01*
X40633333Y38664286D01*
X40671428Y38626191D01*
X40747619Y38588096D01*
X40976190Y38588096D01*
X41052380Y38626191D01*
X41090476Y38664286D01*
X40366666Y39388096D02*
X40100000Y38588096D01*
X39833333Y39388096D01*
X39642857Y39388096D02*
X39147619Y39388096D01*
X39414285Y39083334D01*
X39300000Y39083334D01*
X39223809Y39045239D01*
X39185714Y39007143D01*
X39147619Y38930953D01*
X39147619Y38740477D01*
X39185714Y38664286D01*
X39223809Y38626191D01*
X39300000Y38588096D01*
X39528571Y38588096D01*
X39604761Y38626191D01*
X39642857Y38664286D01*
X40609523Y42125000D02*
X40685714Y42163096D01*
X40800000Y42163096D01*
X40914285Y42125000D01*
X40990476Y42048810D01*
X41028571Y41972620D01*
X41066666Y41820239D01*
X41066666Y41705953D01*
X41028571Y41553572D01*
X40990476Y41477381D01*
X40914285Y41401191D01*
X40800000Y41363096D01*
X40723809Y41363096D01*
X40609523Y41401191D01*
X40571428Y41439286D01*
X40571428Y41705953D01*
X40723809Y41705953D01*
X40228571Y41363096D02*
X40228571Y42163096D01*
X39771428Y41363096D01*
X39771428Y42163096D01*
X39390476Y41363096D02*
X39390476Y42163096D01*
X39200000Y42163096D01*
X39085714Y42125000D01*
X39009523Y42048810D01*
X38971428Y41972620D01*
X38933333Y41820239D01*
X38933333Y41705953D01*
X38971428Y41553572D01*
X39009523Y41477381D01*
X39085714Y41401191D01*
X39200000Y41363096D01*
X39390476Y41363096D01*
X41051190Y40432143D02*
X40784523Y40432143D01*
X40670238Y40013096D02*
X41051190Y40013096D01*
X41051190Y40813096D01*
X40670238Y40813096D01*
X40327380Y40432143D02*
X40060714Y40432143D01*
X39946428Y40013096D02*
X40327380Y40013096D01*
X40327380Y40813096D01*
X39946428Y40813096D01*
X39641666Y40241667D02*
X39260714Y40241667D01*
X39717857Y40013096D02*
X39451190Y40813096D01*
X39184523Y40013096D01*
X38917857Y40013096D02*
X38917857Y40813096D01*
X38727380Y40813096D01*
X38613095Y40775000D01*
X38536904Y40698810D01*
X38498809Y40622620D01*
X38460714Y40470239D01*
X38460714Y40355953D01*
X38498809Y40203572D01*
X38536904Y40127381D01*
X38613095Y40051191D01*
X38727380Y40013096D01*
X38917857Y40013096D01*
X37660714Y40013096D02*
X37927380Y40394048D01*
X38117857Y40013096D02*
X38117857Y40813096D01*
X37813095Y40813096D01*
X37736904Y40775000D01*
X37698809Y40736905D01*
X37660714Y40660715D01*
X37660714Y40546429D01*
X37698809Y40470239D01*
X37736904Y40432143D01*
X37813095Y40394048D01*
X38117857Y40394048D01*
X40951190Y34386000D02*
X40036904Y34386000D01*
X40836904Y33988096D02*
X40646428Y33188096D01*
X40494047Y33759524D01*
X40341666Y33188096D01*
X40151190Y33988096D01*
X40036904Y34386000D02*
X39236904Y34386000D01*
X39846428Y33188096D02*
X39846428Y33988096D01*
X39389285Y33188096D02*
X39732142Y33645239D01*
X39389285Y33988096D02*
X39846428Y33530953D01*
X39236904Y34386000D02*
X38398809Y34386000D01*
X39046428Y33988096D02*
X39046428Y33340477D01*
X39008333Y33264286D01*
X38970238Y33226191D01*
X38894047Y33188096D01*
X38741666Y33188096D01*
X38665476Y33226191D01*
X38627380Y33264286D01*
X38589285Y33340477D01*
X38589285Y33988096D01*
X38398809Y34386000D02*
X37598809Y34386000D01*
X38208333Y33188096D02*
X38208333Y33988096D01*
X37903571Y33988096D01*
X37827380Y33950000D01*
X37789285Y33911905D01*
X37751190Y33835715D01*
X37751190Y33721429D01*
X37789285Y33645239D01*
X37827380Y33607143D01*
X37903571Y33569048D01*
X38208333Y33569048D01*
X40961904Y32786000D02*
X40047619Y32786000D01*
X40847619Y32388096D02*
X40657142Y31588096D01*
X40504761Y32159524D01*
X40352380Y31588096D01*
X40161904Y32388096D01*
X40047619Y32786000D02*
X39361904Y32786000D01*
X39895238Y31816667D02*
X39514285Y31816667D01*
X39971428Y31588096D02*
X39704761Y32388096D01*
X39438095Y31588096D01*
X39361904Y32786000D02*
X38561904Y32786000D01*
X39171428Y31588096D02*
X39171428Y32388096D01*
X38714285Y31588096D02*
X39057142Y32045239D01*
X38714285Y32388096D02*
X39171428Y31930953D01*
X38561904Y32786000D02*
X37838095Y32786000D01*
X38371428Y32007143D02*
X38104761Y32007143D01*
X37990476Y31588096D02*
X38371428Y31588096D01*
X38371428Y32388096D01*
X37990476Y32388096D01*
X40442857Y34788096D02*
X40709523Y35169048D01*
X40900000Y34788096D02*
X40900000Y35588096D01*
X40595238Y35588096D01*
X40519047Y35550000D01*
X40480952Y35511905D01*
X40442857Y35435715D01*
X40442857Y35321429D01*
X40480952Y35245239D01*
X40519047Y35207143D01*
X40595238Y35169048D01*
X40900000Y35169048D01*
X40100000Y34788096D02*
X40100000Y35588096D01*
X40792380Y26291191D02*
X40678095Y26253096D01*
X40487619Y26253096D01*
X40411428Y26291191D01*
X40373333Y26329286D01*
X40335238Y26405477D01*
X40335238Y26481667D01*
X40373333Y26557858D01*
X40411428Y26595953D01*
X40487619Y26634048D01*
X40640000Y26672143D01*
X40716190Y26710239D01*
X40754285Y26748334D01*
X40792380Y26824524D01*
X40792380Y26900715D01*
X40754285Y26976905D01*
X40716190Y27015000D01*
X40640000Y27053096D01*
X40449523Y27053096D01*
X40335238Y27015000D01*
X39535238Y26329286D02*
X39573333Y26291191D01*
X39687619Y26253096D01*
X39763809Y26253096D01*
X39878095Y26291191D01*
X39954285Y26367381D01*
X39992380Y26443572D01*
X40030476Y26595953D01*
X40030476Y26710239D01*
X39992380Y26862620D01*
X39954285Y26938810D01*
X39878095Y27015000D01*
X39763809Y27053096D01*
X39687619Y27053096D01*
X39573333Y27015000D01*
X39535238Y26976905D01*
X38811428Y26253096D02*
X39192380Y26253096D01*
X39192380Y27053096D01*
X40804761Y27643096D02*
X40804761Y28443096D01*
X40500000Y28443096D01*
X40423809Y28405000D01*
X40385714Y28366905D01*
X40347619Y28290715D01*
X40347619Y28176429D01*
X40385714Y28100239D01*
X40423809Y28062143D01*
X40500000Y28024048D01*
X40804761Y28024048D01*
X40004761Y27643096D02*
X40004761Y28443096D01*
X39661904Y27681191D02*
X39547619Y27643096D01*
X39357142Y27643096D01*
X39280952Y27681191D01*
X39242857Y27719286D01*
X39204761Y27795477D01*
X39204761Y27871667D01*
X39242857Y27947858D01*
X39280952Y27985953D01*
X39357142Y28024048D01*
X39509523Y28062143D01*
X39585714Y28100239D01*
X39623809Y28138334D01*
X39661904Y28214524D01*
X39661904Y28290715D01*
X39623809Y28366905D01*
X39585714Y28405000D01*
X39509523Y28443096D01*
X39319047Y28443096D01*
X39204761Y28405000D01*
X38404761Y27719286D02*
X38442857Y27681191D01*
X38557142Y27643096D01*
X38633333Y27643096D01*
X38747619Y27681191D01*
X38823809Y27757381D01*
X38861904Y27833572D01*
X38900000Y27985953D01*
X38900000Y28100239D01*
X38861904Y28252620D01*
X38823809Y28328810D01*
X38747619Y28405000D01*
X38633333Y28443096D01*
X38557142Y28443096D01*
X38442857Y28405000D01*
X38404761Y28366905D01*
X37680952Y27643096D02*
X38061904Y27643096D01*
X38061904Y28443096D01*
X40780952Y24803096D02*
X40780952Y25603096D01*
X40476190Y25603096D01*
X40400000Y25565000D01*
X40361904Y25526905D01*
X40323809Y25450715D01*
X40323809Y25336429D01*
X40361904Y25260239D01*
X40400000Y25222143D01*
X40476190Y25184048D01*
X40780952Y25184048D01*
X39523809Y24879286D02*
X39561904Y24841191D01*
X39676190Y24803096D01*
X39752380Y24803096D01*
X39866666Y24841191D01*
X39942857Y24917381D01*
X39980952Y24993572D01*
X40019047Y25145953D01*
X40019047Y25260239D01*
X39980952Y25412620D01*
X39942857Y25488810D01*
X39866666Y25565000D01*
X39752380Y25603096D01*
X39676190Y25603096D01*
X39561904Y25565000D01*
X39523809Y25526905D01*
X39180952Y24803096D02*
X39180952Y25603096D01*
X38838095Y24841191D02*
X38723809Y24803096D01*
X38533333Y24803096D01*
X38457142Y24841191D01*
X38419047Y24879286D01*
X38380952Y24955477D01*
X38380952Y25031667D01*
X38419047Y25107858D01*
X38457142Y25145953D01*
X38533333Y25184048D01*
X38685714Y25222143D01*
X38761904Y25260239D01*
X38800000Y25298334D01*
X38838095Y25374524D01*
X38838095Y25450715D01*
X38800000Y25526905D01*
X38761904Y25565000D01*
X38685714Y25603096D01*
X38495238Y25603096D01*
X38380952Y25565000D01*
X37580952Y24879286D02*
X37619047Y24841191D01*
X37733333Y24803096D01*
X37809523Y24803096D01*
X37923809Y24841191D01*
X38000000Y24917381D01*
X38038095Y24993572D01*
X38076190Y25145953D01*
X38076190Y25260239D01*
X38038095Y25412620D01*
X38000000Y25488810D01*
X37923809Y25565000D01*
X37809523Y25603096D01*
X37733333Y25603096D01*
X37619047Y25565000D01*
X37580952Y25526905D01*
X47230952Y24788096D02*
X47230952Y25588096D01*
X46926190Y25588096D01*
X46850000Y25550000D01*
X46811904Y25511905D01*
X46773809Y25435715D01*
X46773809Y25321429D01*
X46811904Y25245239D01*
X46850000Y25207143D01*
X46926190Y25169048D01*
X47230952Y25169048D01*
X45973809Y24864286D02*
X46011904Y24826191D01*
X46126190Y24788096D01*
X46202380Y24788096D01*
X46316666Y24826191D01*
X46392857Y24902381D01*
X46430952Y24978572D01*
X46469047Y25130953D01*
X46469047Y25245239D01*
X46430952Y25397620D01*
X46392857Y25473810D01*
X46316666Y25550000D01*
X46202380Y25588096D01*
X46126190Y25588096D01*
X46011904Y25550000D01*
X45973809Y25511905D01*
X45630952Y24788096D02*
X45630952Y25588096D01*
X45288095Y24826191D02*
X45173809Y24788096D01*
X44983333Y24788096D01*
X44907142Y24826191D01*
X44869047Y24864286D01*
X44830952Y24940477D01*
X44830952Y25016667D01*
X44869047Y25092858D01*
X44907142Y25130953D01*
X44983333Y25169048D01*
X45135714Y25207143D01*
X45211904Y25245239D01*
X45250000Y25283334D01*
X45288095Y25359524D01*
X45288095Y25435715D01*
X45250000Y25511905D01*
X45211904Y25550000D01*
X45135714Y25588096D01*
X44945238Y25588096D01*
X44830952Y25550000D01*
X44488095Y24788096D02*
X44488095Y25588096D01*
X44297619Y25588096D01*
X44183333Y25550000D01*
X44107142Y25473810D01*
X44069047Y25397620D01*
X44030952Y25245239D01*
X44030952Y25130953D01*
X44069047Y24978572D01*
X44107142Y24902381D01*
X44183333Y24826191D01*
X44297619Y24788096D01*
X44488095Y24788096D01*
X47221428Y26201191D02*
X47107142Y26163096D01*
X46916666Y26163096D01*
X46840476Y26201191D01*
X46802380Y26239286D01*
X46764285Y26315477D01*
X46764285Y26391667D01*
X46802380Y26467858D01*
X46840476Y26505953D01*
X46916666Y26544048D01*
X47069047Y26582143D01*
X47145238Y26620239D01*
X47183333Y26658334D01*
X47221428Y26734524D01*
X47221428Y26810715D01*
X47183333Y26886905D01*
X47145238Y26925000D01*
X47069047Y26963096D01*
X46878571Y26963096D01*
X46764285Y26925000D01*
X46421428Y26163096D02*
X46421428Y26963096D01*
X46230952Y26963096D01*
X46116666Y26925000D01*
X46040476Y26848810D01*
X46002380Y26772620D01*
X45964285Y26620239D01*
X45964285Y26505953D01*
X46002380Y26353572D01*
X46040476Y26277381D01*
X46116666Y26201191D01*
X46230952Y26163096D01*
X46421428Y26163096D01*
X45659523Y26391667D02*
X45278571Y26391667D01*
X45735714Y26163096D02*
X45469047Y26963096D01*
X45202380Y26163096D01*
X47223809Y27613096D02*
X47223809Y28413096D01*
X46919047Y28413096D01*
X46842857Y28375000D01*
X46804761Y28336905D01*
X46766666Y28260715D01*
X46766666Y28146429D01*
X46804761Y28070239D01*
X46842857Y28032143D01*
X46919047Y27994048D01*
X47223809Y27994048D01*
X46423809Y27613096D02*
X46423809Y28413096D01*
X46080952Y27651191D02*
X45966666Y27613096D01*
X45776190Y27613096D01*
X45700000Y27651191D01*
X45661904Y27689286D01*
X45623809Y27765477D01*
X45623809Y27841667D01*
X45661904Y27917858D01*
X45700000Y27955953D01*
X45776190Y27994048D01*
X45928571Y28032143D01*
X46004761Y28070239D01*
X46042857Y28108334D01*
X46080952Y28184524D01*
X46080952Y28260715D01*
X46042857Y28336905D01*
X46004761Y28375000D01*
X45928571Y28413096D01*
X45738095Y28413096D01*
X45623809Y28375000D01*
X45280952Y27613096D02*
X45280952Y28413096D01*
X45090476Y28413096D01*
X44976190Y28375000D01*
X44900000Y28298810D01*
X44861904Y28222620D01*
X44823809Y28070239D01*
X44823809Y27955953D01*
X44861904Y27803572D01*
X44900000Y27727381D01*
X44976190Y27651191D01*
X45090476Y27613096D01*
X45280952Y27613096D01*
X44519047Y27841667D02*
X44138095Y27841667D01*
X44595238Y27613096D02*
X44328571Y28413096D01*
X44061904Y27613096D01*
X54028571Y34161000D02*
X53114285Y34161000D01*
X53914285Y33763096D02*
X53723809Y32963096D01*
X53571428Y33534524D01*
X53419047Y32963096D01*
X53228571Y33763096D01*
X53114285Y34161000D02*
X52314285Y34161000D01*
X52923809Y32963096D02*
X52923809Y33763096D01*
X52733333Y33763096D01*
X52619047Y33725000D01*
X52542857Y33648810D01*
X52504761Y33572620D01*
X52466666Y33420239D01*
X52466666Y33305953D01*
X52504761Y33153572D01*
X52542857Y33077381D01*
X52619047Y33001191D01*
X52733333Y32963096D01*
X52923809Y32963096D01*
X52314285Y34161000D02*
X51933333Y34161000D01*
X52123809Y32963096D02*
X52123809Y33763096D01*
X51933333Y34161000D02*
X51171428Y34161000D01*
X51780952Y33001191D02*
X51666666Y32963096D01*
X51476190Y32963096D01*
X51400000Y33001191D01*
X51361904Y33039286D01*
X51323809Y33115477D01*
X51323809Y33191667D01*
X51361904Y33267858D01*
X51400000Y33305953D01*
X51476190Y33344048D01*
X51628571Y33382143D01*
X51704761Y33420239D01*
X51742857Y33458334D01*
X51780952Y33534524D01*
X51780952Y33610715D01*
X51742857Y33686905D01*
X51704761Y33725000D01*
X51628571Y33763096D01*
X51438095Y33763096D01*
X51323809Y33725000D01*
X53555952Y32425000D02*
X53632142Y32463096D01*
X53746428Y32463096D01*
X53860714Y32425000D01*
X53936904Y32348810D01*
X53975000Y32272620D01*
X54013095Y32120239D01*
X54013095Y32005953D01*
X53975000Y31853572D01*
X53936904Y31777381D01*
X53860714Y31701191D01*
X53746428Y31663096D01*
X53670238Y31663096D01*
X53555952Y31701191D01*
X53517857Y31739286D01*
X53517857Y32005953D01*
X53670238Y32005953D01*
X53175000Y31663096D02*
X53175000Y32463096D01*
X52870238Y32463096D01*
X52794047Y32425000D01*
X52755952Y32386905D01*
X52717857Y32310715D01*
X52717857Y32196429D01*
X52755952Y32120239D01*
X52794047Y32082143D01*
X52870238Y32044048D01*
X53175000Y32044048D01*
X52375000Y31663096D02*
X52375000Y32463096D01*
X51841666Y32463096D02*
X51689285Y32463096D01*
X51613095Y32425000D01*
X51536904Y32348810D01*
X51498809Y32196429D01*
X51498809Y31929762D01*
X51536904Y31777381D01*
X51613095Y31701191D01*
X51689285Y31663096D01*
X51841666Y31663096D01*
X51917857Y31701191D01*
X51994047Y31777381D01*
X52032142Y31929762D01*
X52032142Y32196429D01*
X51994047Y32348810D01*
X51917857Y32425000D01*
X51841666Y32463096D01*
X50813095Y32463096D02*
X50965476Y32463096D01*
X51041666Y32425000D01*
X51079761Y32386905D01*
X51155952Y32272620D01*
X51194047Y32120239D01*
X51194047Y31815477D01*
X51155952Y31739286D01*
X51117857Y31701191D01*
X51041666Y31663096D01*
X50889285Y31663096D01*
X50813095Y31701191D01*
X50775000Y31739286D01*
X50736904Y31815477D01*
X50736904Y32005953D01*
X50775000Y32082143D01*
X50813095Y32120239D01*
X50889285Y32158334D01*
X51041666Y32158334D01*
X51117857Y32120239D01*
X51155952Y32082143D01*
X51194047Y32005953D01*
X53530952Y35425000D02*
X53607142Y35463096D01*
X53721428Y35463096D01*
X53835714Y35425000D01*
X53911904Y35348810D01*
X53950000Y35272620D01*
X53988095Y35120239D01*
X53988095Y35005953D01*
X53950000Y34853572D01*
X53911904Y34777381D01*
X53835714Y34701191D01*
X53721428Y34663096D01*
X53645238Y34663096D01*
X53530952Y34701191D01*
X53492857Y34739286D01*
X53492857Y35005953D01*
X53645238Y35005953D01*
X53150000Y34663096D02*
X53150000Y35463096D01*
X52845238Y35463096D01*
X52769047Y35425000D01*
X52730952Y35386905D01*
X52692857Y35310715D01*
X52692857Y35196429D01*
X52730952Y35120239D01*
X52769047Y35082143D01*
X52845238Y35044048D01*
X53150000Y35044048D01*
X52350000Y34663096D02*
X52350000Y35463096D01*
X51816666Y35463096D02*
X51664285Y35463096D01*
X51588095Y35425000D01*
X51511904Y35348810D01*
X51473809Y35196429D01*
X51473809Y34929762D01*
X51511904Y34777381D01*
X51588095Y34701191D01*
X51664285Y34663096D01*
X51816666Y34663096D01*
X51892857Y34701191D01*
X51969047Y34777381D01*
X52007142Y34929762D01*
X52007142Y35196429D01*
X51969047Y35348810D01*
X51892857Y35425000D01*
X51816666Y35463096D01*
X50788095Y35196429D02*
X50788095Y34663096D01*
X50978571Y35501191D02*
X51169047Y34929762D01*
X50673809Y34929762D01*
X47491666Y40076191D02*
X47377380Y40038096D01*
X47186904Y40038096D01*
X47110714Y40076191D01*
X47072619Y40114286D01*
X47034523Y40190477D01*
X47034523Y40266667D01*
X47072619Y40342858D01*
X47110714Y40380953D01*
X47186904Y40419048D01*
X47339285Y40457143D01*
X47415476Y40495239D01*
X47453571Y40533334D01*
X47491666Y40609524D01*
X47491666Y40685715D01*
X47453571Y40761905D01*
X47415476Y40800000D01*
X47339285Y40838096D01*
X47148809Y40838096D01*
X47034523Y40800000D01*
X46767857Y40838096D02*
X46577380Y40038096D01*
X46425000Y40609524D01*
X46272619Y40038096D01*
X46082142Y40838096D01*
X45358333Y40038096D02*
X45815476Y40038096D01*
X45586904Y40038096D02*
X45586904Y40838096D01*
X45663095Y40723810D01*
X45739285Y40647620D01*
X45815476Y40609524D01*
X47030952Y42150000D02*
X47107142Y42188096D01*
X47221428Y42188096D01*
X47335714Y42150000D01*
X47411904Y42073810D01*
X47450000Y41997620D01*
X47488095Y41845239D01*
X47488095Y41730953D01*
X47450000Y41578572D01*
X47411904Y41502381D01*
X47335714Y41426191D01*
X47221428Y41388096D01*
X47145238Y41388096D01*
X47030952Y41426191D01*
X46992857Y41464286D01*
X46992857Y41730953D01*
X47145238Y41730953D01*
X46650000Y41388096D02*
X46650000Y42188096D01*
X46345238Y42188096D01*
X46269047Y42150000D01*
X46230952Y42111905D01*
X46192857Y42035715D01*
X46192857Y41921429D01*
X46230952Y41845239D01*
X46269047Y41807143D01*
X46345238Y41769048D01*
X46650000Y41769048D01*
X45850000Y41388096D02*
X45850000Y42188096D01*
X45316666Y42188096D02*
X45164285Y42188096D01*
X45088095Y42150000D01*
X45011904Y42073810D01*
X44973809Y41921429D01*
X44973809Y41654762D01*
X45011904Y41502381D01*
X45088095Y41426191D01*
X45164285Y41388096D01*
X45316666Y41388096D01*
X45392857Y41426191D01*
X45469047Y41502381D01*
X45507142Y41654762D01*
X45507142Y41921429D01*
X45469047Y42073810D01*
X45392857Y42150000D01*
X45316666Y42188096D01*
X44707142Y42188096D02*
X44173809Y42188096D01*
X44516666Y41388096D01*
X47526190Y39636000D02*
X46611904Y39636000D01*
X47411904Y39238096D02*
X47221428Y38438096D01*
X47069047Y39009524D01*
X46916666Y38438096D01*
X46726190Y39238096D01*
X46611904Y39636000D02*
X45811904Y39636000D01*
X46421428Y38438096D02*
X46421428Y39238096D01*
X45964285Y38438096D02*
X46307142Y38895239D01*
X45964285Y39238096D02*
X46421428Y38780953D01*
X45811904Y39636000D02*
X44973809Y39636000D01*
X45621428Y39238096D02*
X45621428Y38590477D01*
X45583333Y38514286D01*
X45545238Y38476191D01*
X45469047Y38438096D01*
X45316666Y38438096D01*
X45240476Y38476191D01*
X45202380Y38514286D01*
X45164285Y38590477D01*
X45164285Y39238096D01*
X44973809Y39636000D02*
X44173809Y39636000D01*
X44783333Y38438096D02*
X44783333Y39238096D01*
X44478571Y39238096D01*
X44402380Y39200000D01*
X44364285Y39161905D01*
X44326190Y39085715D01*
X44326190Y38971429D01*
X44364285Y38895239D01*
X44402380Y38857143D01*
X44478571Y38819048D01*
X44783333Y38819048D01*
D11*
X53641666Y39425000D02*
X53708333Y39463096D01*
X53808333Y39463096D01*
X53908333Y39425000D01*
X53975000Y39348810D01*
X54008333Y39272620D01*
X54041666Y39120239D01*
X54041666Y39005953D01*
X54008333Y38853572D01*
X53975000Y38777381D01*
X53908333Y38701191D01*
X53808333Y38663096D01*
X53741666Y38663096D01*
X53641666Y38701191D01*
X53608333Y38739286D01*
X53608333Y39005953D01*
X53741666Y39005953D01*
X53308333Y38663096D02*
X53308333Y39463096D01*
X53041666Y39463096D01*
X52975000Y39425000D01*
X52941666Y39386905D01*
X52908333Y39310715D01*
X52908333Y39196429D01*
X52941666Y39120239D01*
X52975000Y39082143D01*
X53041666Y39044048D01*
X53308333Y39044048D01*
X52608333Y38663096D02*
X52608333Y39463096D01*
X52141666Y39463096D02*
X52008333Y39463096D01*
X51941666Y39425000D01*
X51875000Y39348810D01*
X51841666Y39196429D01*
X51841666Y38929762D01*
X51875000Y38777381D01*
X51941666Y38701191D01*
X52008333Y38663096D01*
X52141666Y38663096D01*
X52208333Y38701191D01*
X52275000Y38777381D01*
X52308333Y38929762D01*
X52308333Y39196429D01*
X52275000Y39348810D01*
X52208333Y39425000D01*
X52141666Y39463096D01*
X51575000Y39386905D02*
X51541666Y39425000D01*
X51475000Y39463096D01*
X51308333Y39463096D01*
X51241666Y39425000D01*
X51208333Y39386905D01*
X51175000Y39310715D01*
X51175000Y39234524D01*
X51208333Y39120239D01*
X51608333Y38663096D01*
X51175000Y38663096D01*
X50941666Y39463096D02*
X50508333Y39463096D01*
X50741666Y39158334D01*
X50641666Y39158334D01*
X50575000Y39120239D01*
X50541666Y39082143D01*
X50508333Y39005953D01*
X50508333Y38815477D01*
X50541666Y38739286D01*
X50575000Y38701191D01*
X50641666Y38663096D01*
X50841666Y38663096D01*
X50908333Y38701191D01*
X50941666Y38739286D01*
X53616666Y42275000D02*
X53683333Y42313096D01*
X53783333Y42313096D01*
X53883333Y42275000D01*
X53950000Y42198810D01*
X53983333Y42122620D01*
X54016666Y41970239D01*
X54016666Y41855953D01*
X53983333Y41703572D01*
X53950000Y41627381D01*
X53883333Y41551191D01*
X53783333Y41513096D01*
X53716666Y41513096D01*
X53616666Y41551191D01*
X53583333Y41589286D01*
X53583333Y41855953D01*
X53716666Y41855953D01*
X53283333Y41513096D02*
X53283333Y42313096D01*
X53016666Y42313096D01*
X52950000Y42275000D01*
X52916666Y42236905D01*
X52883333Y42160715D01*
X52883333Y42046429D01*
X52916666Y41970239D01*
X52950000Y41932143D01*
X53016666Y41894048D01*
X53283333Y41894048D01*
X52583333Y41513096D02*
X52583333Y42313096D01*
X52116666Y42313096D02*
X51983333Y42313096D01*
X51916666Y42275000D01*
X51850000Y42198810D01*
X51816666Y42046429D01*
X51816666Y41779762D01*
X51850000Y41627381D01*
X51916666Y41551191D01*
X51983333Y41513096D01*
X52116666Y41513096D01*
X52183333Y41551191D01*
X52250000Y41627381D01*
X52283333Y41779762D01*
X52283333Y42046429D01*
X52250000Y42198810D01*
X52183333Y42275000D01*
X52116666Y42313096D01*
X51550000Y42236905D02*
X51516666Y42275000D01*
X51450000Y42313096D01*
X51283333Y42313096D01*
X51216666Y42275000D01*
X51183333Y42236905D01*
X51150000Y42160715D01*
X51150000Y42084524D01*
X51183333Y41970239D01*
X51583333Y41513096D01*
X51150000Y41513096D01*
X50916666Y42313096D02*
X50450000Y42313096D01*
X50750000Y41513096D01*
D10*
X53982142Y40038096D02*
X53982142Y40838096D01*
X53677380Y40838096D01*
X53601190Y40800000D01*
X53563095Y40761905D01*
X53525000Y40685715D01*
X53525000Y40571429D01*
X53563095Y40495239D01*
X53601190Y40457143D01*
X53677380Y40419048D01*
X53982142Y40419048D01*
X53182142Y40457143D02*
X52915476Y40457143D01*
X52801190Y40038096D02*
X53182142Y40038096D01*
X53182142Y40838096D01*
X52801190Y40838096D01*
X52001190Y40038096D02*
X52267857Y40419048D01*
X52458333Y40038096D02*
X52458333Y40838096D01*
X52153571Y40838096D01*
X52077380Y40800000D01*
X52039285Y40761905D01*
X52001190Y40685715D01*
X52001190Y40571429D01*
X52039285Y40495239D01*
X52077380Y40457143D01*
X52153571Y40419048D01*
X52458333Y40419048D01*
X51696428Y40076191D02*
X51582142Y40038096D01*
X51391666Y40038096D01*
X51315476Y40076191D01*
X51277380Y40114286D01*
X51239285Y40190477D01*
X51239285Y40266667D01*
X51277380Y40342858D01*
X51315476Y40380953D01*
X51391666Y40419048D01*
X51544047Y40457143D01*
X51620238Y40495239D01*
X51658333Y40533334D01*
X51696428Y40609524D01*
X51696428Y40685715D01*
X51658333Y40761905D01*
X51620238Y40800000D01*
X51544047Y40838096D01*
X51353571Y40838096D01*
X51239285Y40800000D01*
X51010714Y40838096D02*
X50553571Y40838096D01*
X50782142Y40038096D02*
X50782142Y40838096D01*
X47450000Y31763096D02*
X47450000Y32563096D01*
X46916666Y32563096D02*
X46764285Y32563096D01*
X46688095Y32525000D01*
X46611904Y32448810D01*
X46573809Y32296429D01*
X46573809Y32029762D01*
X46611904Y31877381D01*
X46688095Y31801191D01*
X46764285Y31763096D01*
X46916666Y31763096D01*
X46992857Y31801191D01*
X47069047Y31877381D01*
X47107142Y32029762D01*
X47107142Y32296429D01*
X47069047Y32448810D01*
X46992857Y32525000D01*
X46916666Y32563096D01*
X45811904Y31763096D02*
X46269047Y31763096D01*
X46040476Y31763096D02*
X46040476Y32563096D01*
X46116666Y32448810D01*
X46192857Y32372620D01*
X46269047Y32334524D01*
X47464285Y33188096D02*
X47464285Y33988096D01*
X47273809Y33988096D01*
X47159523Y33950000D01*
X47083333Y33873810D01*
X47045238Y33797620D01*
X47007142Y33645239D01*
X47007142Y33530953D01*
X47045238Y33378572D01*
X47083333Y33302381D01*
X47159523Y33226191D01*
X47273809Y33188096D01*
X47464285Y33188096D01*
X46778571Y33988096D02*
X46321428Y33988096D01*
X46550000Y33188096D02*
X46550000Y33988096D01*
X45597619Y33188096D02*
X45864285Y33569048D01*
X46054761Y33188096D02*
X46054761Y33988096D01*
X45750000Y33988096D01*
X45673809Y33950000D01*
X45635714Y33911905D01*
X45597619Y33835715D01*
X45597619Y33721429D01*
X45635714Y33645239D01*
X45673809Y33607143D01*
X45750000Y33569048D01*
X46054761Y33569048D01*
D11*
X47066666Y35425000D02*
X47133333Y35463096D01*
X47233333Y35463096D01*
X47333333Y35425000D01*
X47400000Y35348810D01*
X47433333Y35272620D01*
X47466666Y35120239D01*
X47466666Y35005953D01*
X47433333Y34853572D01*
X47400000Y34777381D01*
X47333333Y34701191D01*
X47233333Y34663096D01*
X47166666Y34663096D01*
X47066666Y34701191D01*
X47033333Y34739286D01*
X47033333Y35005953D01*
X47166666Y35005953D01*
X46733333Y34663096D02*
X46733333Y35463096D01*
X46466666Y35463096D01*
X46400000Y35425000D01*
X46366666Y35386905D01*
X46333333Y35310715D01*
X46333333Y35196429D01*
X46366666Y35120239D01*
X46400000Y35082143D01*
X46466666Y35044048D01*
X46733333Y35044048D01*
X46033333Y34663096D02*
X46033333Y35463096D01*
X45566666Y35463096D02*
X45433333Y35463096D01*
X45366666Y35425000D01*
X45300000Y35348810D01*
X45266666Y35196429D01*
X45266666Y34929762D01*
X45300000Y34777381D01*
X45366666Y34701191D01*
X45433333Y34663096D01*
X45566666Y34663096D01*
X45633333Y34701191D01*
X45700000Y34777381D01*
X45733333Y34929762D01*
X45733333Y35196429D01*
X45700000Y35348810D01*
X45633333Y35425000D01*
X45566666Y35463096D01*
X45000000Y35386905D02*
X44966666Y35425000D01*
X44900000Y35463096D01*
X44733333Y35463096D01*
X44666666Y35425000D01*
X44633333Y35386905D01*
X44600000Y35310715D01*
X44600000Y35234524D01*
X44633333Y35120239D01*
X45033333Y34663096D01*
X44600000Y34663096D01*
X43966666Y35463096D02*
X44300000Y35463096D01*
X44333333Y35082143D01*
X44300000Y35120239D01*
X44233333Y35158334D01*
X44066666Y35158334D01*
X44000000Y35120239D01*
X43966666Y35082143D01*
X43933333Y35005953D01*
X43933333Y34815477D01*
X43966666Y34739286D01*
X44000000Y34701191D01*
X44066666Y34663096D01*
X44233333Y34663096D01*
X44300000Y34701191D01*
X44333333Y34739286D01*
D10*
X53405952Y25575000D02*
X53482142Y25613096D01*
X53596428Y25613096D01*
X53710714Y25575000D01*
X53786904Y25498810D01*
X53825000Y25422620D01*
X53863095Y25270239D01*
X53863095Y25155953D01*
X53825000Y25003572D01*
X53786904Y24927381D01*
X53710714Y24851191D01*
X53596428Y24813096D01*
X53520238Y24813096D01*
X53405952Y24851191D01*
X53367857Y24889286D01*
X53367857Y25155953D01*
X53520238Y25155953D01*
X53025000Y24813096D02*
X53025000Y25613096D01*
X52720238Y25613096D01*
X52644047Y25575000D01*
X52605952Y25536905D01*
X52567857Y25460715D01*
X52567857Y25346429D01*
X52605952Y25270239D01*
X52644047Y25232143D01*
X52720238Y25194048D01*
X53025000Y25194048D01*
X52225000Y24813096D02*
X52225000Y25613096D01*
X51691666Y25613096D02*
X51539285Y25613096D01*
X51463095Y25575000D01*
X51386904Y25498810D01*
X51348809Y25346429D01*
X51348809Y25079762D01*
X51386904Y24927381D01*
X51463095Y24851191D01*
X51539285Y24813096D01*
X51691666Y24813096D01*
X51767857Y24851191D01*
X51844047Y24927381D01*
X51882142Y25079762D01*
X51882142Y25346429D01*
X51844047Y25498810D01*
X51767857Y25575000D01*
X51691666Y25613096D01*
X50663095Y25346429D02*
X50663095Y24813096D01*
X50853571Y25651191D02*
X51044047Y25079762D01*
X50548809Y25079762D01*
X53392857Y26238096D02*
X53659523Y26619048D01*
X53850000Y26238096D02*
X53850000Y27038096D01*
X53545238Y27038096D01*
X53469047Y27000000D01*
X53430952Y26961905D01*
X53392857Y26885715D01*
X53392857Y26771429D01*
X53430952Y26695239D01*
X53469047Y26657143D01*
X53545238Y26619048D01*
X53850000Y26619048D01*
X53050000Y26238096D02*
X53050000Y27038096D01*
X53405952Y28400000D02*
X53482142Y28438096D01*
X53596428Y28438096D01*
X53710714Y28400000D01*
X53786904Y28323810D01*
X53825000Y28247620D01*
X53863095Y28095239D01*
X53863095Y27980953D01*
X53825000Y27828572D01*
X53786904Y27752381D01*
X53710714Y27676191D01*
X53596428Y27638096D01*
X53520238Y27638096D01*
X53405952Y27676191D01*
X53367857Y27714286D01*
X53367857Y27980953D01*
X53520238Y27980953D01*
X53025000Y27638096D02*
X53025000Y28438096D01*
X52720238Y28438096D01*
X52644047Y28400000D01*
X52605952Y28361905D01*
X52567857Y28285715D01*
X52567857Y28171429D01*
X52605952Y28095239D01*
X52644047Y28057143D01*
X52720238Y28019048D01*
X53025000Y28019048D01*
X52225000Y27638096D02*
X52225000Y28438096D01*
X51691666Y28438096D02*
X51539285Y28438096D01*
X51463095Y28400000D01*
X51386904Y28323810D01*
X51348809Y28171429D01*
X51348809Y27904762D01*
X51386904Y27752381D01*
X51463095Y27676191D01*
X51539285Y27638096D01*
X51691666Y27638096D01*
X51767857Y27676191D01*
X51844047Y27752381D01*
X51882142Y27904762D01*
X51882142Y28171429D01*
X51844047Y28323810D01*
X51767857Y28400000D01*
X51691666Y28438096D01*
X50663095Y28438096D02*
X50815476Y28438096D01*
X50891666Y28400000D01*
X50929761Y28361905D01*
X51005952Y28247620D01*
X51044047Y28095239D01*
X51044047Y27790477D01*
X51005952Y27714286D01*
X50967857Y27676191D01*
X50891666Y27638096D01*
X50739285Y27638096D01*
X50663095Y27676191D01*
X50625000Y27714286D01*
X50586904Y27790477D01*
X50586904Y27980953D01*
X50625000Y28057143D01*
X50663095Y28095239D01*
X50739285Y28133334D01*
X50891666Y28133334D01*
X50967857Y28095239D01*
X51005952Y28057143D01*
X51044047Y27980953D01*
D12*
X3000000Y-250000D02*
X62000000Y-250000D01*
X0Y53500000D02*
X0Y2750000D01*
X65000000Y53500000D02*
G75*
G03X62000000Y56500000I-3000000J0D01*
G01*
X0Y2750000D02*
G75*
G03X3000000Y-250000I3000000J0D01*
G01*
X45800000Y19000000D02*
G75*
G03X44000000Y19000000I-900000J0D01*
G01*
X45800000Y19000000D02*
X45800000Y4000000D01*
X3000000Y56500000D02*
G75*
G03X0Y53500000I0J-3000000D01*
G01*
X65000000Y53500000D02*
X65000000Y2750000D01*
X44000000Y19000000D02*
X44000000Y4000000D01*
X3000000Y56500000D02*
X62000000Y56500000D01*
X45800000Y4000000D02*
G75*
G02X44000000Y4000000I-900000J0D01*
G01*
X62000000Y-250000D02*
G75*
G03X65000000Y2750000I0J3000000D01*
G01*
D13*
X56400000Y42600000D02*
X54400000Y42600000D01*
X56400000Y38400000D02*
X56400000Y42600000D01*
X54400000Y38400000D02*
X56400000Y38400000D01*
X54400000Y42600000D02*
X54400000Y38400000D01*
X40350000Y46075000D02*
X40350000Y48075000D01*
X37550000Y46075000D02*
X40350000Y46075000D01*
X37550000Y48075000D02*
X37550000Y46075000D01*
X40350000Y48075000D02*
X37550000Y48075000D01*
X40150000Y21125000D02*
X37350000Y21125000D01*
X37350000Y21125000D02*
X37350000Y19125000D01*
X37350000Y19125000D02*
X40150000Y19125000D01*
X40150000Y19125000D02*
X40150000Y21125000D01*
X35700000Y22625000D02*
X35700000Y24625000D01*
X32900000Y22625000D02*
X35700000Y22625000D01*
X32900000Y24625000D02*
X32900000Y22625000D01*
X35700000Y24625000D02*
X32900000Y24625000D01*
X35650000Y25125000D02*
X35650000Y27125000D01*
X32850000Y25125000D02*
X35650000Y25125000D01*
X32850000Y27125000D02*
X32850000Y25125000D01*
X35650000Y27125000D02*
X32850000Y27125000D01*
X32850000Y29625000D02*
X32850000Y27625000D01*
X35650000Y29625000D02*
X32850000Y29625000D01*
X35650000Y27625000D02*
X35650000Y29625000D01*
X32850000Y27625000D02*
X35650000Y27625000D01*
X56400000Y28875000D02*
X54400000Y28875000D01*
X56400000Y24675000D02*
X56400000Y28875000D01*
X54400000Y24675000D02*
X56400000Y24675000D01*
X54400000Y28875000D02*
X54400000Y24675000D01*
X49600000Y28675000D02*
X47600000Y28675000D01*
X49600000Y24475000D02*
X49600000Y28675000D01*
X47600000Y24475000D02*
X49600000Y24475000D01*
X47600000Y28675000D02*
X47600000Y24475000D01*
X43200000Y28825000D02*
X41200000Y28825000D01*
X43200000Y24625000D02*
X43200000Y28825000D01*
X41200000Y24625000D02*
X43200000Y24625000D01*
X41200000Y28825000D02*
X41200000Y24625000D01*
X56350000Y35700000D02*
X54350000Y35700000D01*
X56350000Y31500000D02*
X56350000Y35700000D01*
X54350000Y31500000D02*
X56350000Y31500000D01*
X54350000Y35700000D02*
X54350000Y31500000D01*
X49825000Y35800000D02*
X47825000Y35800000D01*
X49825000Y31600000D02*
X49825000Y35800000D01*
X47825000Y31600000D02*
X49825000Y31600000D01*
X47825000Y35800000D02*
X47825000Y31600000D01*
X43425000Y42600000D02*
X41425000Y42600000D01*
X43425000Y38400000D02*
X43425000Y42600000D01*
X41425000Y38400000D02*
X43425000Y38400000D01*
X41425000Y42600000D02*
X41425000Y38400000D01*
X43250000Y35825000D02*
X41250000Y35825000D01*
X43250000Y31625000D02*
X43250000Y35825000D01*
X41250000Y31625000D02*
X43250000Y31625000D01*
X41250000Y35825000D02*
X41250000Y31625000D01*
X49850000Y42600000D02*
X47850000Y42600000D01*
X49850000Y38400000D02*
X49850000Y42600000D01*
X47850000Y38400000D02*
X49850000Y38400000D01*
X47850000Y42600000D02*
X47850000Y38400000D01*
X32850000Y42525000D02*
X32850000Y40525000D01*
X35650000Y42525000D02*
X32850000Y42525000D01*
X35650000Y40525000D02*
X35650000Y42525000D01*
X32850000Y40525000D02*
X35650000Y40525000D01*
X32800000Y40075000D02*
X32800000Y38075000D01*
X35600000Y40075000D02*
X32800000Y40075000D01*
X35600000Y38075000D02*
X35600000Y40075000D01*
X32800000Y38075000D02*
X35600000Y38075000D01*
X32775000Y37625000D02*
X32775000Y35625000D01*
X35575000Y37625000D02*
X32775000Y37625000D01*
X35575000Y35625000D02*
X35575000Y37625000D01*
X32775000Y35625000D02*
X35575000Y35625000D01*
X32775000Y35100000D02*
X32775000Y33100000D01*
X35575000Y35100000D02*
X32775000Y35100000D01*
X35575000Y33100000D02*
X35575000Y35100000D01*
X32775000Y33100000D02*
X35575000Y33100000D01*
X35600000Y30600000D02*
X35600000Y32600000D01*
X32800000Y30600000D02*
X35600000Y30600000D01*
X32800000Y32600000D02*
X32800000Y30600000D01*
X35600000Y32600000D02*
X32800000Y32600000D01*
X50500000Y20925000D02*
X50500000Y18925000D01*
X53300000Y20925000D02*
X50500000Y20925000D01*
X53300000Y18925000D02*
X53300000Y20925000D01*
X50500000Y18925000D02*
X53300000Y18925000D01*
D14*
X59150000Y31575000D02*
G75*
G03X59150000Y31575000I-700000J0D01*
G01*
X46525000Y44425000D02*
G75*
G03X46525000Y44425000I-700000J0D01*
G01*
D15*
G36*
X2455570Y33350152D02*
G01*
X2456189Y33263069D01*
X2907914Y32804109D01*
X3359639Y32345148D01*
X3359968Y32134529D01*
X3360297Y31923911D01*
X3635390Y31923911D01*
X3642478Y31870470D01*
X3645162Y31846112D01*
X3649687Y31800241D01*
X3655809Y31735595D01*
X3663288Y31654909D01*
X3671881Y31560919D01*
X3681346Y31456363D01*
X3691442Y31343975D01*
X3701926Y31226493D01*
X3712556Y31106652D01*
X3723091Y30987189D01*
X3733287Y30870841D01*
X3742905Y30760343D01*
X3751700Y30658431D01*
X3759432Y30567842D01*
X3765858Y30491313D01*
X3770737Y30431579D01*
X3773825Y30391376D01*
X3774883Y30373441D01*
X3774882Y30373356D01*
X3767173Y30358965D01*
X3744019Y30329252D01*
X3705105Y30283869D01*
X3650116Y30222471D01*
X3578736Y30144712D01*
X3490651Y30050246D01*
X3385546Y29938728D01*
X3263105Y29809812D01*
X3228690Y29773713D01*
X2682863Y29201584D01*
X2771119Y29113564D01*
X2842515Y29191242D01*
X2868634Y29219314D01*
X2909434Y29262726D01*
X2962223Y29318634D01*
X3024309Y29384192D01*
X3093000Y29456559D01*
X3165604Y29532888D01*
X3209040Y29578476D01*
X3290584Y29663881D01*
X3356496Y29732290D01*
X3408456Y29784947D01*
X3448145Y29823095D01*
X3477243Y29847980D01*
X3497431Y29860844D01*
X3510390Y29862932D01*
X3517800Y29855487D01*
X3521342Y29839754D01*
X3522697Y29816977D01*
X3522879Y29810761D01*
X3532297Y29767939D01*
X3555503Y29716181D01*
X3587864Y29663672D01*
X3624748Y29618597D01*
X3639507Y29604672D01*
X3715233Y29555953D01*
X3803692Y29528694D01*
X3881900Y29522227D01*
X3970532Y29534424D01*
X4052388Y29570187D01*
X4124836Y29628278D01*
X4138203Y29642738D01*
X4187082Y29698267D01*
X5032674Y29698267D01*
X5032674Y29522227D01*
X5259010Y29522227D01*
X5259010Y29604469D01*
X5261850Y29660614D01*
X5271393Y29699584D01*
X5282991Y29720781D01*
X5291277Y29735948D01*
X5298373Y29757938D01*
X5304748Y29790013D01*
X5310872Y29835431D01*
X5317216Y29897452D01*
X5324250Y29979338D01*
X5329066Y30040254D01*
X5351161Y30325657D01*
X5893565Y29776195D01*
X5991637Y29676772D01*
X6085784Y29581185D01*
X6174285Y29491190D01*
X6255420Y29408543D01*
X6327469Y29334999D01*
X6388712Y29272316D01*
X6437427Y29222248D01*
X6471896Y29186552D01*
X6490379Y29167005D01*
X6520743Y29136056D01*
X6546071Y29114470D01*
X6559695Y29107277D01*
X6577095Y29115703D01*
X6602460Y29136755D01*
X6611058Y29145329D01*
X6647514Y29183380D01*
X6446802Y29387342D01*
X6395596Y29439301D01*
X6329569Y29506180D01*
X6251618Y29585050D01*
X6164638Y29672986D01*
X6071526Y29767059D01*
X5975179Y29864342D01*
X5878492Y29961907D01*
X5809134Y30031855D01*
X5703703Y30138450D01*
X5615129Y30228693D01*
X5542281Y30303808D01*
X5484023Y30365014D01*
X5439225Y30413534D01*
X5417021Y30438871D01*
X5238724Y30438871D01*
X5216401Y30153445D01*
X5209669Y30069781D01*
X5203157Y29993273D01*
X5197234Y29927919D01*
X5192268Y29877719D01*
X5188629Y29846671D01*
X5187458Y29839727D01*
X5180838Y29811435D01*
X4231364Y29811435D01*
X4225026Y29890394D01*
X4205890Y29983685D01*
X4165846Y30066209D01*
X4107418Y30134962D01*
X4033129Y30186937D01*
X3949748Y30218137D01*
X3922698Y30232772D01*
X3909156Y30264181D01*
X3908872Y30265566D01*
X3907247Y30278826D01*
X3909256Y30292405D01*
X3916858Y30308819D01*
X3932016Y30330589D01*
X3956688Y30360233D01*
X3992836Y30400268D01*
X4042420Y30453215D01*
X4107401Y30521591D01*
X4111599Y30525995D01*
X4181493Y30599389D01*
X4255800Y30677563D01*
X4329414Y30755136D01*
X4397229Y30826725D01*
X4454140Y30886949D01*
X4466832Y30900413D01*
X4515487Y30951180D01*
X4558709Y30994625D01*
X4593395Y31027759D01*
X4616444Y31047595D01*
X4624182Y31051954D01*
X4635722Y31042830D01*
X4662710Y31017800D01*
X4703021Y30978948D01*
X4754529Y30928357D01*
X4815109Y30868112D01*
X4882636Y30800296D01*
X4937826Y30744435D01*
X5238724Y30438871D01*
X5417021Y30438871D01*
X5406751Y30450589D01*
X5385471Y30477401D01*
X5374251Y30495192D01*
X5371754Y30503430D01*
X5372700Y30521410D01*
X5375573Y30562108D01*
X5380187Y30623181D01*
X5386358Y30702287D01*
X5393898Y30797086D01*
X5402621Y30905233D01*
X5412343Y31024388D01*
X5422876Y31152209D01*
X5431365Y31254365D01*
X5479396Y31830326D01*
X5355805Y31830326D01*
X5355273Y31817896D01*
X5352769Y31782890D01*
X5348496Y31727785D01*
X5342653Y31655057D01*
X5335443Y31567186D01*
X5327066Y31466649D01*
X5317723Y31355923D01*
X5308758Y31250795D01*
X5298602Y31131517D01*
X5289142Y31018920D01*
X5280596Y30915695D01*
X5273179Y30824527D01*
X5267108Y30748105D01*
X5262601Y30689117D01*
X5259873Y30650251D01*
X5259116Y30635156D01*
X5257935Y30625762D01*
X5253256Y30622034D01*
X5243276Y30625529D01*
X5226190Y30637801D01*
X5200196Y30660406D01*
X5163490Y30694900D01*
X5114267Y30742838D01*
X5050726Y30805776D01*
X4983305Y30873032D01*
X4707601Y31148523D01*
X4709533Y31150594D01*
X4527290Y31150594D01*
X4518984Y31139220D01*
X4495733Y31112437D01*
X4459865Y31072708D01*
X4413713Y31022493D01*
X4359606Y30964254D01*
X4299874Y30900453D01*
X4236848Y30833551D01*
X4172858Y30766010D01*
X4110236Y30700290D01*
X4051310Y30638854D01*
X3998412Y30584163D01*
X3953872Y30538678D01*
X3920020Y30504862D01*
X3899188Y30485174D01*
X3893506Y30481163D01*
X3891634Y30494109D01*
X3887746Y30529866D01*
X3882057Y30586196D01*
X3874781Y30660860D01*
X3866131Y30751620D01*
X3856322Y30856238D01*
X3845566Y30972474D01*
X3834079Y31098092D01*
X3824907Y31199382D01*
X3813174Y31330721D01*
X3802335Y31454448D01*
X3792570Y31568319D01*
X3784063Y31670089D01*
X3776995Y31757513D01*
X3771549Y31828347D01*
X3767908Y31880347D01*
X3766253Y31911268D01*
X3766442Y31919297D01*
X3776334Y31912146D01*
X3801524Y31889159D01*
X3839810Y31852561D01*
X3888989Y31804578D01*
X3946861Y31747434D01*
X4011222Y31683353D01*
X4079871Y31614562D01*
X4150605Y31543284D01*
X4221222Y31471745D01*
X4289520Y31402170D01*
X4353296Y31336783D01*
X4410350Y31277809D01*
X4458478Y31227473D01*
X4495478Y31188001D01*
X4519148Y31161617D01*
X4527290Y31150594D01*
X4709533Y31150594D01*
X4810409Y31258705D01*
X4862768Y31314623D01*
X4921535Y31377052D01*
X4984385Y31443557D01*
X5048995Y31511702D01*
X5113042Y31579052D01*
X5174203Y31643172D01*
X5230153Y31701628D01*
X5278570Y31751982D01*
X5317130Y31791802D01*
X5343509Y31818650D01*
X5355384Y31830092D01*
X5355805Y31830326D01*
X5479396Y31830326D01*
X5491401Y31974274D01*
X6091938Y32605842D01*
X6692475Y33237411D01*
X6692034Y33325685D01*
X6691592Y33413960D01*
X6594583Y33310334D01*
X6540291Y33252537D01*
X6476192Y33184632D01*
X6404016Y33108428D01*
X6325492Y33025731D01*
X6242349Y32938347D01*
X6156319Y32848085D01*
X6069130Y32756750D01*
X5982513Y32666151D01*
X5898197Y32578093D01*
X5817912Y32494385D01*
X5743387Y32416833D01*
X5676354Y32347243D01*
X5618541Y32287424D01*
X5571679Y32239182D01*
X5537496Y32204324D01*
X5517724Y32184657D01*
X5513390Y32180884D01*
X5513092Y32194008D01*
X5514731Y32227611D01*
X5518023Y32277120D01*
X5522682Y32337963D01*
X5524682Y32362268D01*
X5539577Y32540049D01*
X5422955Y32540049D01*
X5416934Y32511757D01*
X5413863Y32489382D01*
X5409548Y32447283D01*
X5404488Y32390822D01*
X5399181Y32325365D01*
X5397344Y32301138D01*
X5391927Y32231579D01*
X5386459Y32166982D01*
X5381488Y32113452D01*
X5377561Y32077090D01*
X5376675Y32070491D01*
X5373334Y32056944D01*
X5366101Y32041086D01*
X5353440Y32021139D01*
X5333811Y31995327D01*
X5305678Y31961871D01*
X5267502Y31918993D01*
X5217746Y31864917D01*
X5154871Y31797864D01*
X5077341Y31716057D01*
X4998251Y31633050D01*
X4919564Y31550906D01*
X4846112Y31474831D01*
X4779724Y31406675D01*
X4722227Y31348288D01*
X4675451Y31301519D01*
X4641224Y31268218D01*
X4621373Y31250233D01*
X4617140Y31247558D01*
X4606003Y31257259D01*
X4579971Y31282559D01*
X4541570Y31320918D01*
X4493328Y31369800D01*
X4437770Y31426666D01*
X4397592Y31468094D01*
X4187831Y31685000D01*
X4806337Y31685000D01*
X4806337Y31923911D01*
X4051881Y31923911D01*
X4051881Y31817458D01*
X3913565Y31955346D01*
X3815447Y32053160D01*
X3624357Y32053160D01*
X3622529Y32037730D01*
X3613277Y32029133D01*
X3590950Y32025387D01*
X3549895Y32024511D01*
X3542624Y32024505D01*
X3460891Y32024505D01*
X3460891Y32243828D01*
X3542624Y32162821D01*
X3588730Y32113572D01*
X3616306Y32075841D01*
X3624357Y32053160D01*
X3815447Y32053160D01*
X3775248Y32093234D01*
X3775248Y32216048D01*
X3774863Y32272550D01*
X3773100Y32308495D01*
X3769050Y32328470D01*
X3761801Y32337063D01*
X3750870Y32338861D01*
X3738712Y32341502D01*
X3729727Y32352088D01*
X3722826Y32374619D01*
X3716924Y32413091D01*
X3710935Y32471502D01*
X3709013Y32492896D01*
X3704852Y32540049D01*
X5422955Y32540049D01*
X5539577Y32540049D01*
X5699109Y32540049D01*
X5699109Y32653218D01*
X5631314Y32653218D01*
X5591662Y32654304D01*
X5570116Y32659546D01*
X5567480Y32662666D01*
X5428616Y32662666D01*
X5421308Y32655538D01*
X5395993Y32653338D01*
X5378908Y32653218D01*
X5321881Y32653218D01*
X5109221Y32653218D01*
X3694698Y32653218D01*
X3742542Y32702214D01*
X3816850Y32762676D01*
X3908816Y32809309D01*
X4019998Y32842751D01*
X4130471Y32861247D01*
X4202773Y32869878D01*
X4202773Y32778960D01*
X4781188Y32778960D01*
X4781188Y32882107D01*
X4866065Y32873504D01*
X4925368Y32866244D01*
X4988551Y32856621D01*
X5026386Y32849748D01*
X5101832Y32834593D01*
X5105526Y32743905D01*
X5109221Y32653218D01*
X5321881Y32653218D01*
X5321881Y32703515D01*
X5323544Y32735024D01*
X5327697Y32752537D01*
X5329371Y32753812D01*
X5347987Y32745746D01*
X5375183Y32726180D01*
X5402448Y32702056D01*
X5421267Y32680318D01*
X5422943Y32677492D01*
X5428616Y32662666D01*
X5567480Y32662666D01*
X5559662Y32671919D01*
X5555442Y32685396D01*
X5538219Y32720373D01*
X5505138Y32762421D01*
X5461893Y32805644D01*
X5414174Y32844146D01*
X5382830Y32864199D01*
X5347123Y32886149D01*
X5328819Y32904589D01*
X5322388Y32926332D01*
X5321894Y32939282D01*
X5321894Y32942425D01*
X4680594Y32942425D01*
X4680594Y32879554D01*
X4303367Y32879554D01*
X4303367Y32942425D01*
X4680594Y32942425D01*
X5321894Y32942425D01*
X5321881Y32980148D01*
X5216048Y32980148D01*
X5167355Y32978971D01*
X5129405Y32975835D01*
X5108308Y32971329D01*
X5106023Y32969505D01*
X5092641Y32966705D01*
X5060074Y32967852D01*
X5013916Y32972607D01*
X4982376Y32976997D01*
X4925188Y32985622D01*
X4872886Y32993409D01*
X4833582Y32999153D01*
X4822055Y33000785D01*
X4791937Y33010112D01*
X4781188Y33024728D01*
X4777920Y33030680D01*
X4766230Y33035222D01*
X4743288Y33038530D01*
X4706265Y33040785D01*
X4652332Y33042166D01*
X4578660Y33042850D01*
X4491980Y33043020D01*
X4399471Y33042923D01*
X4329094Y33042470D01*
X4277836Y33041410D01*
X4242680Y33039497D01*
X4220611Y33036481D01*
X4208615Y33032115D01*
X4203676Y33026151D01*
X4202773Y33019216D01*
X4195079Y32997205D01*
X4169879Y32984679D01*
X4123991Y32980212D01*
X4115736Y32980148D01*
X4038027Y32972132D01*
X3949767Y32950064D01*
X3858915Y32916916D01*
X3773430Y32875661D01*
X3701274Y32829269D01*
X3691928Y32821918D01*
X3661467Y32798002D01*
X3643428Y32788424D01*
X3630831Y32791520D01*
X3617900Y32804296D01*
X3579707Y32829322D01*
X3530002Y32838929D01*
X3476476Y32833933D01*
X3426822Y32815149D01*
X3388733Y32783394D01*
X3385975Y32779703D01*
X3357474Y32720425D01*
X3352172Y32659066D01*
X3369482Y32600573D01*
X3408820Y32549896D01*
X3413630Y32545711D01*
X3441560Y32525833D01*
X3469898Y32517079D01*
X3509737Y32516447D01*
X3519689Y32517008D01*
X3558668Y32518438D01*
X3578746Y32515161D01*
X3586015Y32505272D01*
X3586760Y32496039D01*
X3588284Y32469256D01*
X3592065Y32428975D01*
X3594782Y32404876D01*
X3598723Y32366599D01*
X3597084Y32347004D01*
X3587579Y32339842D01*
X3570649Y32338861D01*
X3560608Y32342099D01*
X3544410Y32352580D01*
X3520855Y32371452D01*
X3488743Y32399865D01*
X3446872Y32438965D01*
X3394043Y32489903D01*
X3329055Y32553827D01*
X3250709Y32631886D01*
X3157803Y32725228D01*
X3049137Y32835002D01*
X2996769Y32888048D01*
X2454951Y33437233D01*
X2455570Y33350152D01*
G37*
X2455570Y33350152D02*
X2456189Y33263069D01*
X2907914Y32804109D01*
X3359639Y32345148D01*
X3359968Y32134529D01*
X3360297Y31923911D01*
X3635390Y31923911D01*
X3642478Y31870470D01*
X3645162Y31846112D01*
X3649687Y31800241D01*
X3655809Y31735595D01*
X3663288Y31654909D01*
X3671881Y31560919D01*
X3681346Y31456363D01*
X3691442Y31343975D01*
X3701926Y31226493D01*
X3712556Y31106652D01*
X3723091Y30987189D01*
X3733287Y30870841D01*
X3742905Y30760343D01*
X3751700Y30658431D01*
X3759432Y30567842D01*
X3765858Y30491313D01*
X3770737Y30431579D01*
X3773825Y30391376D01*
X3774883Y30373441D01*
X3774882Y30373356D01*
X3767173Y30358965D01*
X3744019Y30329252D01*
X3705105Y30283869D01*
X3650116Y30222471D01*
X3578736Y30144712D01*
X3490651Y30050246D01*
X3385546Y29938728D01*
X3263105Y29809812D01*
X3228690Y29773713D01*
X2682863Y29201584D01*
X2771119Y29113564D01*
X2842515Y29191242D01*
X2868634Y29219314D01*
X2909434Y29262726D01*
X2962223Y29318634D01*
X3024309Y29384192D01*
X3093000Y29456559D01*
X3165604Y29532888D01*
X3209040Y29578476D01*
X3290584Y29663881D01*
X3356496Y29732290D01*
X3408456Y29784947D01*
X3448145Y29823095D01*
X3477243Y29847980D01*
X3497431Y29860844D01*
X3510390Y29862932D01*
X3517800Y29855487D01*
X3521342Y29839754D01*
X3522697Y29816977D01*
X3522879Y29810761D01*
X3532297Y29767939D01*
X3555503Y29716181D01*
X3587864Y29663672D01*
X3624748Y29618597D01*
X3639507Y29604672D01*
X3715233Y29555953D01*
X3803692Y29528694D01*
X3881900Y29522227D01*
X3970532Y29534424D01*
X4052388Y29570187D01*
X4124836Y29628278D01*
X4138203Y29642738D01*
X4187082Y29698267D01*
X5032674Y29698267D01*
X5032674Y29522227D01*
X5259010Y29522227D01*
X5259010Y29604469D01*
X5261850Y29660614D01*
X5271393Y29699584D01*
X5282991Y29720781D01*
X5291277Y29735948D01*
X5298373Y29757938D01*
X5304748Y29790013D01*
X5310872Y29835431D01*
X5317216Y29897452D01*
X5324250Y29979338D01*
X5329066Y30040254D01*
X5351161Y30325657D01*
X5893565Y29776195D01*
X5991637Y29676772D01*
X6085784Y29581185D01*
X6174285Y29491190D01*
X6255420Y29408543D01*
X6327469Y29334999D01*
X6388712Y29272316D01*
X6437427Y29222248D01*
X6471896Y29186552D01*
X6490379Y29167005D01*
X6520743Y29136056D01*
X6546071Y29114470D01*
X6559695Y29107277D01*
X6577095Y29115703D01*
X6602460Y29136755D01*
X6611058Y29145329D01*
X6647514Y29183380D01*
X6446802Y29387342D01*
X6395596Y29439301D01*
X6329569Y29506180D01*
X6251618Y29585050D01*
X6164638Y29672986D01*
X6071526Y29767059D01*
X5975179Y29864342D01*
X5878492Y29961907D01*
X5809134Y30031855D01*
X5703703Y30138450D01*
X5615129Y30228693D01*
X5542281Y30303808D01*
X5484023Y30365014D01*
X5439225Y30413534D01*
X5417021Y30438871D01*
X5238724Y30438871D01*
X5216401Y30153445D01*
X5209669Y30069781D01*
X5203157Y29993273D01*
X5197234Y29927919D01*
X5192268Y29877719D01*
X5188629Y29846671D01*
X5187458Y29839727D01*
X5180838Y29811435D01*
X4231364Y29811435D01*
X4225026Y29890394D01*
X4205890Y29983685D01*
X4165846Y30066209D01*
X4107418Y30134962D01*
X4033129Y30186937D01*
X3949748Y30218137D01*
X3922698Y30232772D01*
X3909156Y30264181D01*
X3908872Y30265566D01*
X3907247Y30278826D01*
X3909256Y30292405D01*
X3916858Y30308819D01*
X3932016Y30330589D01*
X3956688Y30360233D01*
X3992836Y30400268D01*
X4042420Y30453215D01*
X4107401Y30521591D01*
X4111599Y30525995D01*
X4181493Y30599389D01*
X4255800Y30677563D01*
X4329414Y30755136D01*
X4397229Y30826725D01*
X4454140Y30886949D01*
X4466832Y30900413D01*
X4515487Y30951180D01*
X4558709Y30994625D01*
X4593395Y31027759D01*
X4616444Y31047595D01*
X4624182Y31051954D01*
X4635722Y31042830D01*
X4662710Y31017800D01*
X4703021Y30978948D01*
X4754529Y30928357D01*
X4815109Y30868112D01*
X4882636Y30800296D01*
X4937826Y30744435D01*
X5238724Y30438871D01*
X5417021Y30438871D01*
X5406751Y30450589D01*
X5385471Y30477401D01*
X5374251Y30495192D01*
X5371754Y30503430D01*
X5372700Y30521410D01*
X5375573Y30562108D01*
X5380187Y30623181D01*
X5386358Y30702287D01*
X5393898Y30797086D01*
X5402621Y30905233D01*
X5412343Y31024388D01*
X5422876Y31152209D01*
X5431365Y31254365D01*
X5479396Y31830326D01*
X5355805Y31830326D01*
X5355273Y31817896D01*
X5352769Y31782890D01*
X5348496Y31727785D01*
X5342653Y31655057D01*
X5335443Y31567186D01*
X5327066Y31466649D01*
X5317723Y31355923D01*
X5308758Y31250795D01*
X5298602Y31131517D01*
X5289142Y31018920D01*
X5280596Y30915695D01*
X5273179Y30824527D01*
X5267108Y30748105D01*
X5262601Y30689117D01*
X5259873Y30650251D01*
X5259116Y30635156D01*
X5257935Y30625762D01*
X5253256Y30622034D01*
X5243276Y30625529D01*
X5226190Y30637801D01*
X5200196Y30660406D01*
X5163490Y30694900D01*
X5114267Y30742838D01*
X5050726Y30805776D01*
X4983305Y30873032D01*
X4707601Y31148523D01*
X4709533Y31150594D01*
X4527290Y31150594D01*
X4518984Y31139220D01*
X4495733Y31112437D01*
X4459865Y31072708D01*
X4413713Y31022493D01*
X4359606Y30964254D01*
X4299874Y30900453D01*
X4236848Y30833551D01*
X4172858Y30766010D01*
X4110236Y30700290D01*
X4051310Y30638854D01*
X3998412Y30584163D01*
X3953872Y30538678D01*
X3920020Y30504862D01*
X3899188Y30485174D01*
X3893506Y30481163D01*
X3891634Y30494109D01*
X3887746Y30529866D01*
X3882057Y30586196D01*
X3874781Y30660860D01*
X3866131Y30751620D01*
X3856322Y30856238D01*
X3845566Y30972474D01*
X3834079Y31098092D01*
X3824907Y31199382D01*
X3813174Y31330721D01*
X3802335Y31454448D01*
X3792570Y31568319D01*
X3784063Y31670089D01*
X3776995Y31757513D01*
X3771549Y31828347D01*
X3767908Y31880347D01*
X3766253Y31911268D01*
X3766442Y31919297D01*
X3776334Y31912146D01*
X3801524Y31889159D01*
X3839810Y31852561D01*
X3888989Y31804578D01*
X3946861Y31747434D01*
X4011222Y31683353D01*
X4079871Y31614562D01*
X4150605Y31543284D01*
X4221222Y31471745D01*
X4289520Y31402170D01*
X4353296Y31336783D01*
X4410350Y31277809D01*
X4458478Y31227473D01*
X4495478Y31188001D01*
X4519148Y31161617D01*
X4527290Y31150594D01*
X4709533Y31150594D01*
X4810409Y31258705D01*
X4862768Y31314623D01*
X4921535Y31377052D01*
X4984385Y31443557D01*
X5048995Y31511702D01*
X5113042Y31579052D01*
X5174203Y31643172D01*
X5230153Y31701628D01*
X5278570Y31751982D01*
X5317130Y31791802D01*
X5343509Y31818650D01*
X5355384Y31830092D01*
X5355805Y31830326D01*
X5479396Y31830326D01*
X5491401Y31974274D01*
X6091938Y32605842D01*
X6692475Y33237411D01*
X6692034Y33325685D01*
X6691592Y33413960D01*
X6594583Y33310334D01*
X6540291Y33252537D01*
X6476192Y33184632D01*
X6404016Y33108428D01*
X6325492Y33025731D01*
X6242349Y32938347D01*
X6156319Y32848085D01*
X6069130Y32756750D01*
X5982513Y32666151D01*
X5898197Y32578093D01*
X5817912Y32494385D01*
X5743387Y32416833D01*
X5676354Y32347243D01*
X5618541Y32287424D01*
X5571679Y32239182D01*
X5537496Y32204324D01*
X5517724Y32184657D01*
X5513390Y32180884D01*
X5513092Y32194008D01*
X5514731Y32227611D01*
X5518023Y32277120D01*
X5522682Y32337963D01*
X5524682Y32362268D01*
X5539577Y32540049D01*
X5422955Y32540049D01*
X5416934Y32511757D01*
X5413863Y32489382D01*
X5409548Y32447283D01*
X5404488Y32390822D01*
X5399181Y32325365D01*
X5397344Y32301138D01*
X5391927Y32231579D01*
X5386459Y32166982D01*
X5381488Y32113452D01*
X5377561Y32077090D01*
X5376675Y32070491D01*
X5373334Y32056944D01*
X5366101Y32041086D01*
X5353440Y32021139D01*
X5333811Y31995327D01*
X5305678Y31961871D01*
X5267502Y31918993D01*
X5217746Y31864917D01*
X5154871Y31797864D01*
X5077341Y31716057D01*
X4998251Y31633050D01*
X4919564Y31550906D01*
X4846112Y31474831D01*
X4779724Y31406675D01*
X4722227Y31348288D01*
X4675451Y31301519D01*
X4641224Y31268218D01*
X4621373Y31250233D01*
X4617140Y31247558D01*
X4606003Y31257259D01*
X4579971Y31282559D01*
X4541570Y31320918D01*
X4493328Y31369800D01*
X4437770Y31426666D01*
X4397592Y31468094D01*
X4187831Y31685000D01*
X4806337Y31685000D01*
X4806337Y31923911D01*
X4051881Y31923911D01*
X4051881Y31817458D01*
X3913565Y31955346D01*
X3815447Y32053160D01*
X3624357Y32053160D01*
X3622529Y32037730D01*
X3613277Y32029133D01*
X3590950Y32025387D01*
X3549895Y32024511D01*
X3542624Y32024505D01*
X3460891Y32024505D01*
X3460891Y32243828D01*
X3542624Y32162821D01*
X3588730Y32113572D01*
X3616306Y32075841D01*
X3624357Y32053160D01*
X3815447Y32053160D01*
X3775248Y32093234D01*
X3775248Y32216048D01*
X3774863Y32272550D01*
X3773100Y32308495D01*
X3769050Y32328470D01*
X3761801Y32337063D01*
X3750870Y32338861D01*
X3738712Y32341502D01*
X3729727Y32352088D01*
X3722826Y32374619D01*
X3716924Y32413091D01*
X3710935Y32471502D01*
X3709013Y32492896D01*
X3704852Y32540049D01*
X5422955Y32540049D01*
X5539577Y32540049D01*
X5699109Y32540049D01*
X5699109Y32653218D01*
X5631314Y32653218D01*
X5591662Y32654304D01*
X5570116Y32659546D01*
X5567480Y32662666D01*
X5428616Y32662666D01*
X5421308Y32655538D01*
X5395993Y32653338D01*
X5378908Y32653218D01*
X5321881Y32653218D01*
X5109221Y32653218D01*
X3694698Y32653218D01*
X3742542Y32702214D01*
X3816850Y32762676D01*
X3908816Y32809309D01*
X4019998Y32842751D01*
X4130471Y32861247D01*
X4202773Y32869878D01*
X4202773Y32778960D01*
X4781188Y32778960D01*
X4781188Y32882107D01*
X4866065Y32873504D01*
X4925368Y32866244D01*
X4988551Y32856621D01*
X5026386Y32849748D01*
X5101832Y32834593D01*
X5105526Y32743905D01*
X5109221Y32653218D01*
X5321881Y32653218D01*
X5321881Y32703515D01*
X5323544Y32735024D01*
X5327697Y32752537D01*
X5329371Y32753812D01*
X5347987Y32745746D01*
X5375183Y32726180D01*
X5402448Y32702056D01*
X5421267Y32680318D01*
X5422943Y32677492D01*
X5428616Y32662666D01*
X5567480Y32662666D01*
X5559662Y32671919D01*
X5555442Y32685396D01*
X5538219Y32720373D01*
X5505138Y32762421D01*
X5461893Y32805644D01*
X5414174Y32844146D01*
X5382830Y32864199D01*
X5347123Y32886149D01*
X5328819Y32904589D01*
X5322388Y32926332D01*
X5321894Y32939282D01*
X5321894Y32942425D01*
X4680594Y32942425D01*
X4680594Y32879554D01*
X4303367Y32879554D01*
X4303367Y32942425D01*
X4680594Y32942425D01*
X5321894Y32942425D01*
X5321881Y32980148D01*
X5216048Y32980148D01*
X5167355Y32978971D01*
X5129405Y32975835D01*
X5108308Y32971329D01*
X5106023Y32969505D01*
X5092641Y32966705D01*
X5060074Y32967852D01*
X5013916Y32972607D01*
X4982376Y32976997D01*
X4925188Y32985622D01*
X4872886Y32993409D01*
X4833582Y32999153D01*
X4822055Y33000785D01*
X4791937Y33010112D01*
X4781188Y33024728D01*
X4777920Y33030680D01*
X4766230Y33035222D01*
X4743288Y33038530D01*
X4706265Y33040785D01*
X4652332Y33042166D01*
X4578660Y33042850D01*
X4491980Y33043020D01*
X4399471Y33042923D01*
X4329094Y33042470D01*
X4277836Y33041410D01*
X4242680Y33039497D01*
X4220611Y33036481D01*
X4208615Y33032115D01*
X4203676Y33026151D01*
X4202773Y33019216D01*
X4195079Y32997205D01*
X4169879Y32984679D01*
X4123991Y32980212D01*
X4115736Y32980148D01*
X4038027Y32972132D01*
X3949767Y32950064D01*
X3858915Y32916916D01*
X3773430Y32875661D01*
X3701274Y32829269D01*
X3691928Y32821918D01*
X3661467Y32798002D01*
X3643428Y32788424D01*
X3630831Y32791520D01*
X3617900Y32804296D01*
X3579707Y32829322D01*
X3530002Y32838929D01*
X3476476Y32833933D01*
X3426822Y32815149D01*
X3388733Y32783394D01*
X3385975Y32779703D01*
X3357474Y32720425D01*
X3352172Y32659066D01*
X3369482Y32600573D01*
X3408820Y32549896D01*
X3413630Y32545711D01*
X3441560Y32525833D01*
X3469898Y32517079D01*
X3509737Y32516447D01*
X3519689Y32517008D01*
X3558668Y32518438D01*
X3578746Y32515161D01*
X3586015Y32505272D01*
X3586760Y32496039D01*
X3588284Y32469256D01*
X3592065Y32428975D01*
X3594782Y32404876D01*
X3598723Y32366599D01*
X3597084Y32347004D01*
X3587579Y32339842D01*
X3570649Y32338861D01*
X3560608Y32342099D01*
X3544410Y32352580D01*
X3520855Y32371452D01*
X3488743Y32399865D01*
X3446872Y32438965D01*
X3394043Y32489903D01*
X3329055Y32553827D01*
X3250709Y32631886D01*
X3157803Y32725228D01*
X3049137Y32835002D01*
X2996769Y32888048D01*
X2454951Y33437233D01*
X2455570Y33350152D01*
G36*
X2832178Y27397178D02*
G01*
X6352971Y27397178D01*
X6352971Y28264802D01*
X2832178Y28264802D01*
X2832178Y27397178D01*
G37*
X2832178Y27397178D02*
X6352971Y27397178D01*
X6352971Y28264802D01*
X2832178Y28264802D01*
X2832178Y27397178D01*
D13*
X50600000Y48075000D02*
X50600000Y46075000D01*
X53400000Y48075000D02*
X50600000Y48075000D01*
X53400000Y46075000D02*
X53400000Y48075000D01*
X50600000Y46075000D02*
X53400000Y46075000D01*
D15*
G36*
X14096304Y46205346D02*
G01*
X13916736Y46128190D01*
X13855900Y46090037D01*
X13762498Y46019366D01*
X13699413Y45957431D01*
X13672296Y45910356D01*
X13674500Y45893426D01*
X13702297Y45866565D01*
X13757175Y45823842D01*
X13792074Y45798927D01*
X13895572Y45727202D01*
X13964636Y45791802D01*
X14077671Y45878547D01*
X14194734Y45924284D01*
X14333346Y45935180D01*
X14367350Y45933586D01*
X14530322Y45902307D01*
X14663067Y45830429D01*
X14767423Y45716754D01*
X14808400Y45646132D01*
X14859283Y45492132D01*
X14863343Y45336198D01*
X14822913Y45187603D01*
X14740322Y45055624D01*
X14636428Y44961840D01*
X14498678Y44895187D01*
X14348219Y44871084D01*
X14196976Y44888315D01*
X14056872Y44945663D01*
X13948783Y45032036D01*
X13889265Y45095816D01*
X13777333Y45016919D01*
X13714716Y44967402D01*
X13674093Y44924952D01*
X13665400Y44906790D01*
X13685566Y44868668D01*
X13738640Y44814305D01*
X13813488Y44752773D01*
X13898976Y44693147D01*
X13983968Y44644500D01*
X13992143Y44640526D01*
X14122377Y44597663D01*
X14276258Y44576052D01*
X14433039Y44576669D01*
X14571972Y44600489D01*
X14605505Y44611700D01*
X14747770Y44675327D01*
X14857811Y44748964D01*
X14954073Y44846247D01*
X14998358Y44902097D01*
X15092912Y45056495D01*
X15146115Y45219384D01*
X15161455Y45403409D01*
X15158098Y45481296D01*
X15121312Y45674389D01*
X15044364Y45844133D01*
X14933630Y45987546D01*
X14795484Y46101648D01*
X14636304Y46183460D01*
X14462463Y46230000D01*
X14280338Y46238289D01*
X14096304Y46205346D01*
G37*
X14096304Y46205346D02*
X13916736Y46128190D01*
X13855900Y46090037D01*
X13762498Y46019366D01*
X13699413Y45957431D01*
X13672296Y45910356D01*
X13674500Y45893426D01*
X13702297Y45866565D01*
X13757175Y45823842D01*
X13792074Y45798927D01*
X13895572Y45727202D01*
X13964636Y45791802D01*
X14077671Y45878547D01*
X14194734Y45924284D01*
X14333346Y45935180D01*
X14367350Y45933586D01*
X14530322Y45902307D01*
X14663067Y45830429D01*
X14767423Y45716754D01*
X14808400Y45646132D01*
X14859283Y45492132D01*
X14863343Y45336198D01*
X14822913Y45187603D01*
X14740322Y45055624D01*
X14636428Y44961840D01*
X14498678Y44895187D01*
X14348219Y44871084D01*
X14196976Y44888315D01*
X14056872Y44945663D01*
X13948783Y45032036D01*
X13889265Y45095816D01*
X13777333Y45016919D01*
X13714716Y44967402D01*
X13674093Y44924952D01*
X13665400Y44906790D01*
X13685566Y44868668D01*
X13738640Y44814305D01*
X13813488Y44752773D01*
X13898976Y44693147D01*
X13983968Y44644500D01*
X13992143Y44640526D01*
X14122377Y44597663D01*
X14276258Y44576052D01*
X14433039Y44576669D01*
X14571972Y44600489D01*
X14605505Y44611700D01*
X14747770Y44675327D01*
X14857811Y44748964D01*
X14954073Y44846247D01*
X14998358Y44902097D01*
X15092912Y45056495D01*
X15146115Y45219384D01*
X15161455Y45403409D01*
X15158098Y45481296D01*
X15121312Y45674389D01*
X15044364Y45844133D01*
X14933630Y45987546D01*
X14795484Y46101648D01*
X14636304Y46183460D01*
X14462463Y46230000D01*
X14280338Y46238289D01*
X14096304Y46205346D01*
G36*
X14208447Y46867928D02*
G01*
X13965929Y46826848D01*
X13730762Y46743861D01*
X13508556Y46618008D01*
X13316556Y46459806D01*
X13245066Y46387417D01*
X13190274Y46326918D01*
X13160602Y46287826D01*
X13157652Y46280208D01*
X13177098Y46253448D01*
X13226917Y46210240D01*
X13273436Y46176025D01*
X13388969Y46096150D01*
X13504481Y46219642D01*
X13677794Y46370226D01*
X13871752Y46478617D01*
X14079830Y46545543D01*
X14295499Y46571732D01*
X14512233Y46557913D01*
X14723505Y46504815D01*
X14922789Y46413165D01*
X15103556Y46283693D01*
X15259280Y46117127D01*
X15328188Y46016102D01*
X15421195Y45818865D01*
X15476339Y45602814D01*
X15493369Y45379053D01*
X15472030Y45158683D01*
X15412071Y44952806D01*
X15355068Y44836760D01*
X15208271Y44631206D01*
X15034222Y44468401D01*
X14833782Y44348881D01*
X14607810Y44273179D01*
X14400599Y44243950D01*
X14156057Y44251391D01*
X13930543Y44305792D01*
X13724928Y44406816D01*
X13540080Y44554123D01*
X13500673Y44594430D01*
X13432450Y44663873D01*
X13381068Y44698543D01*
X13332307Y44698971D01*
X13271950Y44665685D01*
X13194092Y44605852D01*
X13120763Y44547382D01*
X13297832Y44371999D01*
X13510319Y44195137D01*
X13743734Y44062484D01*
X13993173Y43975500D01*
X14253730Y43935646D01*
X14520502Y43944381D01*
X14656000Y43967715D01*
X14881402Y44040175D01*
X15100822Y44153375D01*
X15300177Y44298569D01*
X15465387Y44467006D01*
X15471095Y44474114D01*
X15549331Y44585953D01*
X15625561Y44718394D01*
X15691927Y44855518D01*
X15740577Y44981411D01*
X15761260Y45062100D01*
X15774422Y45142837D01*
X15788431Y45196885D01*
X15812556Y45229570D01*
X15856065Y45246216D01*
X15928226Y45252151D01*
X16038309Y45252697D01*
X16092812Y45252600D01*
X16383200Y45252600D01*
X16383200Y44187440D01*
X16535600Y44086213D01*
X16688000Y43984987D01*
X16688000Y46852800D01*
X16064438Y46852801D01*
X15867457Y46852403D01*
X15716067Y46851010D01*
X15605066Y46848323D01*
X15529250Y46844042D01*
X15483415Y46837869D01*
X15462358Y46829502D01*
X15460877Y46818644D01*
X15461188Y46818089D01*
X15487171Y46779515D01*
X15532673Y46716774D01*
X15570400Y46666474D01*
X15659300Y46549571D01*
X16021250Y46548786D01*
X16383200Y46548000D01*
X16383200Y45557400D01*
X16092812Y45557400D01*
X15965558Y45557305D01*
X15879817Y45560565D01*
X15826342Y45572501D01*
X15795884Y45598432D01*
X15779194Y45643677D01*
X15767025Y45713557D01*
X15761626Y45747900D01*
X15742832Y45817029D01*
X15706811Y45914015D01*
X15660113Y46021820D01*
X15640665Y46062617D01*
X15503770Y46288044D01*
X15334956Y46478274D01*
X15139832Y46632349D01*
X14924009Y46749311D01*
X14693097Y46828201D01*
X14452707Y46868059D01*
X14208447Y46867928D01*
G37*
X14208447Y46867928D02*
X13965929Y46826848D01*
X13730762Y46743861D01*
X13508556Y46618008D01*
X13316556Y46459806D01*
X13245066Y46387417D01*
X13190274Y46326918D01*
X13160602Y46287826D01*
X13157652Y46280208D01*
X13177098Y46253448D01*
X13226917Y46210240D01*
X13273436Y46176025D01*
X13388969Y46096150D01*
X13504481Y46219642D01*
X13677794Y46370226D01*
X13871752Y46478617D01*
X14079830Y46545543D01*
X14295499Y46571732D01*
X14512233Y46557913D01*
X14723505Y46504815D01*
X14922789Y46413165D01*
X15103556Y46283693D01*
X15259280Y46117127D01*
X15328188Y46016102D01*
X15421195Y45818865D01*
X15476339Y45602814D01*
X15493369Y45379053D01*
X15472030Y45158683D01*
X15412071Y44952806D01*
X15355068Y44836760D01*
X15208271Y44631206D01*
X15034222Y44468401D01*
X14833782Y44348881D01*
X14607810Y44273179D01*
X14400599Y44243950D01*
X14156057Y44251391D01*
X13930543Y44305792D01*
X13724928Y44406816D01*
X13540080Y44554123D01*
X13500673Y44594430D01*
X13432450Y44663873D01*
X13381068Y44698543D01*
X13332307Y44698971D01*
X13271950Y44665685D01*
X13194092Y44605852D01*
X13120763Y44547382D01*
X13297832Y44371999D01*
X13510319Y44195137D01*
X13743734Y44062484D01*
X13993173Y43975500D01*
X14253730Y43935646D01*
X14520502Y43944381D01*
X14656000Y43967715D01*
X14881402Y44040175D01*
X15100822Y44153375D01*
X15300177Y44298569D01*
X15465387Y44467006D01*
X15471095Y44474114D01*
X15549331Y44585953D01*
X15625561Y44718394D01*
X15691927Y44855518D01*
X15740577Y44981411D01*
X15761260Y45062100D01*
X15774422Y45142837D01*
X15788431Y45196885D01*
X15812556Y45229570D01*
X15856065Y45246216D01*
X15928226Y45252151D01*
X16038309Y45252697D01*
X16092812Y45252600D01*
X16383200Y45252600D01*
X16383200Y44187440D01*
X16535600Y44086213D01*
X16688000Y43984987D01*
X16688000Y46852800D01*
X16064438Y46852801D01*
X15867457Y46852403D01*
X15716067Y46851010D01*
X15605066Y46848323D01*
X15529250Y46844042D01*
X15483415Y46837869D01*
X15462358Y46829502D01*
X15460877Y46818644D01*
X15461188Y46818089D01*
X15487171Y46779515D01*
X15532673Y46716774D01*
X15570400Y46666474D01*
X15659300Y46549571D01*
X16021250Y46548786D01*
X16383200Y46548000D01*
X16383200Y45557400D01*
X16092812Y45557400D01*
X15965558Y45557305D01*
X15879817Y45560565D01*
X15826342Y45572501D01*
X15795884Y45598432D01*
X15779194Y45643677D01*
X15767025Y45713557D01*
X15761626Y45747900D01*
X15742832Y45817029D01*
X15706811Y45914015D01*
X15660113Y46021820D01*
X15640665Y46062617D01*
X15503770Y46288044D01*
X15334956Y46478274D01*
X15139832Y46632349D01*
X14924009Y46749311D01*
X14693097Y46828201D01*
X14452707Y46868059D01*
X14208447Y46867928D01*
G36*
X21727151Y46844562D02*
G01*
X21712731Y46842398D01*
X21662857Y46829880D01*
X21662857Y46471935D01*
X21839750Y46464087D01*
X21947133Y46456236D01*
X22030481Y46442171D01*
X22101821Y46419702D01*
X22116429Y46413700D01*
X22272957Y46327695D01*
X22408082Y46213402D01*
X22518824Y46073790D01*
X22589758Y45941572D01*
X22608604Y45894507D01*
X22621172Y45849376D01*
X22628689Y45797012D01*
X22632383Y45728248D01*
X22633483Y45633917D01*
X22633500Y45615000D01*
X22632715Y45515499D01*
X22629540Y45443097D01*
X22622747Y45388629D01*
X22611110Y45342927D01*
X22593399Y45296824D01*
X22589758Y45288429D01*
X22502898Y45131796D01*
X22392004Y44999809D01*
X22260393Y44894693D01*
X22111382Y44818678D01*
X21948289Y44773991D01*
X21806284Y44762286D01*
X21661588Y44762286D01*
X21666758Y44576322D01*
X21671929Y44390357D01*
X21780786Y44387080D01*
X21856552Y44388990D01*
X21947029Y44397205D01*
X22025448Y44408748D01*
X22137113Y44438616D01*
X22262471Y44487233D01*
X22388743Y44548535D01*
X22503149Y44616459D01*
X22575430Y44669721D01*
X22720352Y44814162D01*
X22840380Y44984649D01*
X22869679Y45037435D01*
X22922124Y45143191D01*
X22958515Y45234122D01*
X22983651Y45325097D01*
X23002331Y45430984D01*
X23006535Y45461373D01*
X23016394Y45665841D01*
X22992547Y45863679D01*
X22937396Y46051818D01*
X22853346Y46227186D01*
X22742799Y46386714D01*
X22608160Y46527331D01*
X22451833Y46645966D01*
X22276220Y46739550D01*
X22083726Y46805011D01*
X21932389Y46833471D01*
X21851824Y46841680D01*
X21779687Y46845528D01*
X21727151Y46844562D01*
G37*
X21727151Y46844562D02*
X21712731Y46842398D01*
X21662857Y46829880D01*
X21662857Y46471935D01*
X21839750Y46464087D01*
X21947133Y46456236D01*
X22030481Y46442171D01*
X22101821Y46419702D01*
X22116429Y46413700D01*
X22272957Y46327695D01*
X22408082Y46213402D01*
X22518824Y46073790D01*
X22589758Y45941572D01*
X22608604Y45894507D01*
X22621172Y45849376D01*
X22628689Y45797012D01*
X22632383Y45728248D01*
X22633483Y45633917D01*
X22633500Y45615000D01*
X22632715Y45515499D01*
X22629540Y45443097D01*
X22622747Y45388629D01*
X22611110Y45342927D01*
X22593399Y45296824D01*
X22589758Y45288429D01*
X22502898Y45131796D01*
X22392004Y44999809D01*
X22260393Y44894693D01*
X22111382Y44818678D01*
X21948289Y44773991D01*
X21806284Y44762286D01*
X21661588Y44762286D01*
X21666758Y44576322D01*
X21671929Y44390357D01*
X21780786Y44387080D01*
X21856552Y44388990D01*
X21947029Y44397205D01*
X22025448Y44408748D01*
X22137113Y44438616D01*
X22262471Y44487233D01*
X22388743Y44548535D01*
X22503149Y44616459D01*
X22575430Y44669721D01*
X22720352Y44814162D01*
X22840380Y44984649D01*
X22869679Y45037435D01*
X22922124Y45143191D01*
X22958515Y45234122D01*
X22983651Y45325097D01*
X23002331Y45430984D01*
X23006535Y45461373D01*
X23016394Y45665841D01*
X22992547Y45863679D01*
X22937396Y46051818D01*
X22853346Y46227186D01*
X22742799Y46386714D01*
X22608160Y46527331D01*
X22451833Y46645966D01*
X22276220Y46739550D01*
X22083726Y46805011D01*
X21932389Y46833471D01*
X21851824Y46841680D01*
X21779687Y46845528D01*
X21727151Y46844562D01*
G36*
X19639296Y46846325D02*
G01*
X19602701Y46831398D01*
X19584065Y46797158D01*
X19577328Y46738235D01*
X19576429Y46650031D01*
X19576429Y46471935D01*
X19753532Y46464821D01*
X19842128Y46459901D01*
X19908303Y46451378D01*
X19965920Y46436024D01*
X20028840Y46410611D01*
X20071583Y46390773D01*
X20203969Y46311928D01*
X20321743Y46210668D01*
X20419324Y46093537D01*
X20491132Y45967078D01*
X20528119Y45855393D01*
X20540883Y45796429D01*
X19830429Y45796429D01*
X19830429Y45433572D01*
X20540883Y45433572D01*
X20528119Y45374607D01*
X20496996Y45282460D01*
X20444547Y45180728D01*
X20378149Y45082021D01*
X20312649Y45006283D01*
X20178441Y44896915D01*
X20027250Y44819066D01*
X19862072Y44773967D01*
X19718097Y44762286D01*
X19575159Y44762286D01*
X19580330Y44576322D01*
X19585500Y44390357D01*
X19694357Y44387566D01*
X19775835Y44389058D01*
X19861799Y44395978D01*
X19901380Y44401443D01*
X20091787Y44450914D01*
X20273109Y44531168D01*
X20440154Y44638398D01*
X20587734Y44768799D01*
X20710658Y44918564D01*
X20789135Y45052572D01*
X20854856Y45202924D01*
X20897375Y45341450D01*
X20919867Y45481238D01*
X20925617Y45615000D01*
X20908794Y45826725D01*
X20858374Y46024747D01*
X20774432Y46208887D01*
X20657043Y46378963D01*
X20566978Y46477786D01*
X20410677Y46613369D01*
X20245917Y46715679D01*
X20067384Y46787194D01*
X19869762Y46830393D01*
X19790611Y46839708D01*
X19699913Y46847306D01*
X19639296Y46846325D01*
G37*
X19639296Y46846325D02*
X19602701Y46831398D01*
X19584065Y46797158D01*
X19577328Y46738235D01*
X19576429Y46650031D01*
X19576429Y46471935D01*
X19753532Y46464821D01*
X19842128Y46459901D01*
X19908303Y46451378D01*
X19965920Y46436024D01*
X20028840Y46410611D01*
X20071583Y46390773D01*
X20203969Y46311928D01*
X20321743Y46210668D01*
X20419324Y46093537D01*
X20491132Y45967078D01*
X20528119Y45855393D01*
X20540883Y45796429D01*
X19830429Y45796429D01*
X19830429Y45433572D01*
X20540883Y45433572D01*
X20528119Y45374607D01*
X20496996Y45282460D01*
X20444547Y45180728D01*
X20378149Y45082021D01*
X20312649Y45006283D01*
X20178441Y44896915D01*
X20027250Y44819066D01*
X19862072Y44773967D01*
X19718097Y44762286D01*
X19575159Y44762286D01*
X19580330Y44576322D01*
X19585500Y44390357D01*
X19694357Y44387566D01*
X19775835Y44389058D01*
X19861799Y44395978D01*
X19901380Y44401443D01*
X20091787Y44450914D01*
X20273109Y44531168D01*
X20440154Y44638398D01*
X20587734Y44768799D01*
X20710658Y44918564D01*
X20789135Y45052572D01*
X20854856Y45202924D01*
X20897375Y45341450D01*
X20919867Y45481238D01*
X20925617Y45615000D01*
X20908794Y45826725D01*
X20858374Y46024747D01*
X20774432Y46208887D01*
X20657043Y46378963D01*
X20566978Y46477786D01*
X20410677Y46613369D01*
X20245917Y46715679D01*
X20067384Y46787194D01*
X19869762Y46830393D01*
X19790611Y46839708D01*
X19699913Y46847306D01*
X19639296Y46846325D01*
D16*
X55997619Y43688096D02*
X55997619Y43116667D01*
X56035714Y43002381D01*
X56111904Y42926191D01*
X56226190Y42888096D01*
X56302380Y42888096D01*
X55197619Y42888096D02*
X55654761Y42888096D01*
X55426190Y42888096D02*
X55426190Y43688096D01*
X55502380Y43573810D01*
X55578571Y43497620D01*
X55654761Y43459524D01*
X54702380Y43688096D02*
X54626190Y43688096D01*
X54550000Y43650000D01*
X54511904Y43611905D01*
X54473809Y43535715D01*
X54435714Y43383334D01*
X54435714Y43192858D01*
X54473809Y43040477D01*
X54511904Y42964286D01*
X54550000Y42926191D01*
X54626190Y42888096D01*
X54702380Y42888096D01*
X54778571Y42926191D01*
X54816666Y42964286D01*
X54854761Y43040477D01*
X54892857Y43192858D01*
X54892857Y43383334D01*
X54854761Y43535715D01*
X54816666Y43611905D01*
X54778571Y43650000D01*
X54702380Y43688096D01*
X39522619Y49263096D02*
X39522619Y48691667D01*
X39560714Y48577381D01*
X39636904Y48501191D01*
X39751190Y48463096D01*
X39827380Y48463096D01*
X39179761Y49186905D02*
X39141666Y49225000D01*
X39065476Y49263096D01*
X38875000Y49263096D01*
X38798809Y49225000D01*
X38760714Y49186905D01*
X38722619Y49110715D01*
X38722619Y49034524D01*
X38760714Y48920239D01*
X39217857Y48463096D01*
X38722619Y48463096D01*
X38341666Y48463096D02*
X38189285Y48463096D01*
X38113095Y48501191D01*
X38075000Y48539286D01*
X37998809Y48653572D01*
X37960714Y48805953D01*
X37960714Y49110715D01*
X37998809Y49186905D01*
X38036904Y49225000D01*
X38113095Y49263096D01*
X38265476Y49263096D01*
X38341666Y49225000D01*
X38379761Y49186905D01*
X38417857Y49110715D01*
X38417857Y48920239D01*
X38379761Y48844048D01*
X38341666Y48805953D01*
X38265476Y48767858D01*
X38113095Y48767858D01*
X38036904Y48805953D01*
X37998809Y48844048D01*
X37960714Y48920239D01*
X39447619Y22288096D02*
X39447619Y21716667D01*
X39485714Y21602381D01*
X39561904Y21526191D01*
X39676190Y21488096D01*
X39752380Y21488096D01*
X39104761Y22211905D02*
X39066666Y22250000D01*
X38990476Y22288096D01*
X38800000Y22288096D01*
X38723809Y22250000D01*
X38685714Y22211905D01*
X38647619Y22135715D01*
X38647619Y22059524D01*
X38685714Y21945239D01*
X39142857Y21488096D01*
X38647619Y21488096D01*
X38190476Y21945239D02*
X38266666Y21983334D01*
X38304761Y22021429D01*
X38342857Y22097620D01*
X38342857Y22135715D01*
X38304761Y22211905D01*
X38266666Y22250000D01*
X38190476Y22288096D01*
X38038095Y22288096D01*
X37961904Y22250000D01*
X37923809Y22211905D01*
X37885714Y22135715D01*
X37885714Y22097620D01*
X37923809Y22021429D01*
X37961904Y21983334D01*
X38038095Y21945239D01*
X38190476Y21945239D01*
X38266666Y21907143D01*
X38304761Y21869048D01*
X38342857Y21792858D01*
X38342857Y21640477D01*
X38304761Y21564286D01*
X38266666Y21526191D01*
X38190476Y21488096D01*
X38038095Y21488096D01*
X37961904Y21526191D01*
X37923809Y21564286D01*
X37885714Y21640477D01*
X37885714Y21792858D01*
X37923809Y21869048D01*
X37961904Y21907143D01*
X38038095Y21945239D01*
X37522619Y27113096D02*
X37522619Y26541667D01*
X37560714Y26427381D01*
X37636904Y26351191D01*
X37751190Y26313096D01*
X37827380Y26313096D01*
X36722619Y26313096D02*
X37179761Y26313096D01*
X36951190Y26313096D02*
X36951190Y27113096D01*
X37027380Y26998810D01*
X37103571Y26922620D01*
X37179761Y26884524D01*
X36036904Y27113096D02*
X36189285Y27113096D01*
X36265476Y27075000D01*
X36303571Y27036905D01*
X36379761Y26922620D01*
X36417857Y26770239D01*
X36417857Y26465477D01*
X36379761Y26389286D01*
X36341666Y26351191D01*
X36265476Y26313096D01*
X36113095Y26313096D01*
X36036904Y26351191D01*
X35998809Y26389286D01*
X35960714Y26465477D01*
X35960714Y26655953D01*
X35998809Y26732143D01*
X36036904Y26770239D01*
X36113095Y26808334D01*
X36265476Y26808334D01*
X36341666Y26770239D01*
X36379761Y26732143D01*
X36417857Y26655953D01*
X37522619Y23963096D02*
X37522619Y23391667D01*
X37560714Y23277381D01*
X37636904Y23201191D01*
X37751190Y23163096D01*
X37827380Y23163096D01*
X36722619Y23163096D02*
X37179761Y23163096D01*
X36951190Y23163096D02*
X36951190Y23963096D01*
X37027380Y23848810D01*
X37103571Y23772620D01*
X37179761Y23734524D01*
X35998809Y23963096D02*
X36379761Y23963096D01*
X36417857Y23582143D01*
X36379761Y23620239D01*
X36303571Y23658334D01*
X36113095Y23658334D01*
X36036904Y23620239D01*
X35998809Y23582143D01*
X35960714Y23505953D01*
X35960714Y23315477D01*
X35998809Y23239286D01*
X36036904Y23201191D01*
X36113095Y23163096D01*
X36303571Y23163096D01*
X36379761Y23201191D01*
X36417857Y23239286D01*
X37547619Y29763096D02*
X37547619Y29191667D01*
X37585714Y29077381D01*
X37661904Y29001191D01*
X37776190Y28963096D01*
X37852380Y28963096D01*
X36747619Y28963096D02*
X37204761Y28963096D01*
X36976190Y28963096D02*
X36976190Y29763096D01*
X37052380Y29648810D01*
X37128571Y29572620D01*
X37204761Y29534524D01*
X36480952Y29763096D02*
X35947619Y29763096D01*
X36290476Y28963096D01*
X56072619Y29963096D02*
X56072619Y29391667D01*
X56110714Y29277381D01*
X56186904Y29201191D01*
X56301190Y29163096D01*
X56377380Y29163096D01*
X55272619Y29163096D02*
X55729761Y29163096D01*
X55501190Y29163096D02*
X55501190Y29963096D01*
X55577380Y29848810D01*
X55653571Y29772620D01*
X55729761Y29734524D01*
X54967857Y29886905D02*
X54929761Y29925000D01*
X54853571Y29963096D01*
X54663095Y29963096D01*
X54586904Y29925000D01*
X54548809Y29886905D01*
X54510714Y29810715D01*
X54510714Y29734524D01*
X54548809Y29620239D01*
X55005952Y29163096D01*
X54510714Y29163096D01*
X49272619Y29763096D02*
X49272619Y29191667D01*
X49310714Y29077381D01*
X49386904Y29001191D01*
X49501190Y28963096D01*
X49577380Y28963096D01*
X48472619Y28963096D02*
X48929761Y28963096D01*
X48701190Y28963096D02*
X48701190Y29763096D01*
X48777380Y29648810D01*
X48853571Y29572620D01*
X48929761Y29534524D01*
X48205952Y29763096D02*
X47710714Y29763096D01*
X47977380Y29458334D01*
X47863095Y29458334D01*
X47786904Y29420239D01*
X47748809Y29382143D01*
X47710714Y29305953D01*
X47710714Y29115477D01*
X47748809Y29039286D01*
X47786904Y29001191D01*
X47863095Y28963096D01*
X48091666Y28963096D01*
X48167857Y29001191D01*
X48205952Y29039286D01*
X42872619Y29913096D02*
X42872619Y29341667D01*
X42910714Y29227381D01*
X42986904Y29151191D01*
X43101190Y29113096D01*
X43177380Y29113096D01*
X42072619Y29113096D02*
X42529761Y29113096D01*
X42301190Y29113096D02*
X42301190Y29913096D01*
X42377380Y29798810D01*
X42453571Y29722620D01*
X42529761Y29684524D01*
X41386904Y29646429D02*
X41386904Y29113096D01*
X41577380Y29951191D02*
X41767857Y29379762D01*
X41272619Y29379762D01*
X56072619Y36788096D02*
X56072619Y36216667D01*
X56110714Y36102381D01*
X56186904Y36026191D01*
X56301190Y35988096D01*
X56377380Y35988096D01*
X55272619Y35988096D02*
X55729761Y35988096D01*
X55501190Y35988096D02*
X55501190Y36788096D01*
X55577380Y36673810D01*
X55653571Y36597620D01*
X55729761Y36559524D01*
X54510714Y35988096D02*
X54967857Y35988096D01*
X54739285Y35988096D02*
X54739285Y36788096D01*
X54815476Y36673810D01*
X54891666Y36597620D01*
X54967857Y36559524D01*
X49347619Y36863096D02*
X49347619Y36291667D01*
X49385714Y36177381D01*
X49461904Y36101191D01*
X49576190Y36063096D01*
X49652380Y36063096D01*
X48547619Y36063096D02*
X49004761Y36063096D01*
X48776190Y36063096D02*
X48776190Y36863096D01*
X48852380Y36748810D01*
X48928571Y36672620D01*
X49004761Y36634524D01*
X48090476Y36520239D02*
X48166666Y36558334D01*
X48204761Y36596429D01*
X48242857Y36672620D01*
X48242857Y36710715D01*
X48204761Y36786905D01*
X48166666Y36825000D01*
X48090476Y36863096D01*
X47938095Y36863096D01*
X47861904Y36825000D01*
X47823809Y36786905D01*
X47785714Y36710715D01*
X47785714Y36672620D01*
X47823809Y36596429D01*
X47861904Y36558334D01*
X47938095Y36520239D01*
X48090476Y36520239D01*
X48166666Y36482143D01*
X48204761Y36444048D01*
X48242857Y36367858D01*
X48242857Y36215477D01*
X48204761Y36139286D01*
X48166666Y36101191D01*
X48090476Y36063096D01*
X47938095Y36063096D01*
X47861904Y36101191D01*
X47823809Y36139286D01*
X47785714Y36215477D01*
X47785714Y36367858D01*
X47823809Y36444048D01*
X47861904Y36482143D01*
X47938095Y36520239D01*
X42691666Y43688096D02*
X42691666Y43116667D01*
X42729761Y43002381D01*
X42805952Y42926191D01*
X42920238Y42888096D01*
X42996428Y42888096D01*
X41929761Y43688096D02*
X42310714Y43688096D01*
X42348809Y43307143D01*
X42310714Y43345239D01*
X42234523Y43383334D01*
X42044047Y43383334D01*
X41967857Y43345239D01*
X41929761Y43307143D01*
X41891666Y43230953D01*
X41891666Y43040477D01*
X41929761Y42964286D01*
X41967857Y42926191D01*
X42044047Y42888096D01*
X42234523Y42888096D01*
X42310714Y42926191D01*
X42348809Y42964286D01*
X42897619Y36913096D02*
X42897619Y36341667D01*
X42935714Y36227381D01*
X43011904Y36151191D01*
X43126190Y36113096D01*
X43202380Y36113096D01*
X42097619Y36113096D02*
X42554761Y36113096D01*
X42326190Y36113096D02*
X42326190Y36913096D01*
X42402380Y36798810D01*
X42478571Y36722620D01*
X42554761Y36684524D01*
X41716666Y36113096D02*
X41564285Y36113096D01*
X41488095Y36151191D01*
X41450000Y36189286D01*
X41373809Y36303572D01*
X41335714Y36455953D01*
X41335714Y36760715D01*
X41373809Y36836905D01*
X41411904Y36875000D01*
X41488095Y36913096D01*
X41640476Y36913096D01*
X41716666Y36875000D01*
X41754761Y36836905D01*
X41792857Y36760715D01*
X41792857Y36570239D01*
X41754761Y36494048D01*
X41716666Y36455953D01*
X41640476Y36417858D01*
X41488095Y36417858D01*
X41411904Y36455953D01*
X41373809Y36494048D01*
X41335714Y36570239D01*
D13*
X49472619Y43688096D02*
X49472619Y43116667D01*
X49510714Y43002381D01*
X49586904Y42926191D01*
X49701190Y42888096D01*
X49777380Y42888096D01*
X49129761Y43611905D02*
X49091666Y43650000D01*
X49015476Y43688096D01*
X48825000Y43688096D01*
X48748809Y43650000D01*
X48710714Y43611905D01*
X48672619Y43535715D01*
X48672619Y43459524D01*
X48710714Y43345239D01*
X49167857Y42888096D01*
X48672619Y42888096D01*
X47948809Y43688096D02*
X48329761Y43688096D01*
X48367857Y43307143D01*
X48329761Y43345239D01*
X48253571Y43383334D01*
X48063095Y43383334D01*
X47986904Y43345239D01*
X47948809Y43307143D01*
X47910714Y43230953D01*
X47910714Y43040477D01*
X47948809Y42964286D01*
X47986904Y42926191D01*
X48063095Y42888096D01*
X48253571Y42888096D01*
X48329761Y42926191D01*
X48367857Y42964286D01*
D16*
X37497619Y42463096D02*
X37497619Y41891667D01*
X37535714Y41777381D01*
X37611904Y41701191D01*
X37726190Y41663096D01*
X37802380Y41663096D01*
X37154761Y42386905D02*
X37116666Y42425000D01*
X37040476Y42463096D01*
X36850000Y42463096D01*
X36773809Y42425000D01*
X36735714Y42386905D01*
X36697619Y42310715D01*
X36697619Y42234524D01*
X36735714Y42120239D01*
X37192857Y41663096D01*
X36697619Y41663096D01*
X36202380Y42463096D02*
X36126190Y42463096D01*
X36050000Y42425000D01*
X36011904Y42386905D01*
X35973809Y42310715D01*
X35935714Y42158334D01*
X35935714Y41967858D01*
X35973809Y41815477D01*
X36011904Y41739286D01*
X36050000Y41701191D01*
X36126190Y41663096D01*
X36202380Y41663096D01*
X36278571Y41701191D01*
X36316666Y41739286D01*
X36354761Y41815477D01*
X36392857Y41967858D01*
X36392857Y42158334D01*
X36354761Y42310715D01*
X36316666Y42386905D01*
X36278571Y42425000D01*
X36202380Y42463096D01*
X37422619Y39463096D02*
X37422619Y38891667D01*
X37460714Y38777381D01*
X37536904Y38701191D01*
X37651190Y38663096D01*
X37727380Y38663096D01*
X37079761Y39386905D02*
X37041666Y39425000D01*
X36965476Y39463096D01*
X36775000Y39463096D01*
X36698809Y39425000D01*
X36660714Y39386905D01*
X36622619Y39310715D01*
X36622619Y39234524D01*
X36660714Y39120239D01*
X37117857Y38663096D01*
X36622619Y38663096D01*
X35860714Y38663096D02*
X36317857Y38663096D01*
X36089285Y38663096D02*
X36089285Y39463096D01*
X36165476Y39348810D01*
X36241666Y39272620D01*
X36317857Y39234524D01*
X37447619Y37113096D02*
X37447619Y36541667D01*
X37485714Y36427381D01*
X37561904Y36351191D01*
X37676190Y36313096D01*
X37752380Y36313096D01*
X37104761Y37036905D02*
X37066666Y37075000D01*
X36990476Y37113096D01*
X36800000Y37113096D01*
X36723809Y37075000D01*
X36685714Y37036905D01*
X36647619Y36960715D01*
X36647619Y36884524D01*
X36685714Y36770239D01*
X37142857Y36313096D01*
X36647619Y36313096D01*
X36342857Y37036905D02*
X36304761Y37075000D01*
X36228571Y37113096D01*
X36038095Y37113096D01*
X35961904Y37075000D01*
X35923809Y37036905D01*
X35885714Y36960715D01*
X35885714Y36884524D01*
X35923809Y36770239D01*
X36380952Y36313096D01*
X35885714Y36313096D01*
X37572619Y35563096D02*
X37572619Y34991667D01*
X37610714Y34877381D01*
X37686904Y34801191D01*
X37801190Y34763096D01*
X37877380Y34763096D01*
X37229761Y35486905D02*
X37191666Y35525000D01*
X37115476Y35563096D01*
X36925000Y35563096D01*
X36848809Y35525000D01*
X36810714Y35486905D01*
X36772619Y35410715D01*
X36772619Y35334524D01*
X36810714Y35220239D01*
X37267857Y34763096D01*
X36772619Y34763096D01*
X36505952Y35563096D02*
X36010714Y35563096D01*
X36277380Y35258334D01*
X36163095Y35258334D01*
X36086904Y35220239D01*
X36048809Y35182143D01*
X36010714Y35105953D01*
X36010714Y34915477D01*
X36048809Y34839286D01*
X36086904Y34801191D01*
X36163095Y34763096D01*
X36391666Y34763096D01*
X36467857Y34801191D01*
X36505952Y34839286D01*
X37472619Y31213096D02*
X37472619Y30641667D01*
X37510714Y30527381D01*
X37586904Y30451191D01*
X37701190Y30413096D01*
X37777380Y30413096D01*
X37129761Y31136905D02*
X37091666Y31175000D01*
X37015476Y31213096D01*
X36825000Y31213096D01*
X36748809Y31175000D01*
X36710714Y31136905D01*
X36672619Y31060715D01*
X36672619Y30984524D01*
X36710714Y30870239D01*
X37167857Y30413096D01*
X36672619Y30413096D01*
X35986904Y30946429D02*
X35986904Y30413096D01*
X36177380Y31251191D02*
X36367857Y30679762D01*
X35872619Y30679762D01*
X52497619Y22088096D02*
X52497619Y21516667D01*
X52535714Y21402381D01*
X52611904Y21326191D01*
X52726190Y21288096D01*
X52802380Y21288096D01*
X52154761Y22011905D02*
X52116666Y22050000D01*
X52040476Y22088096D01*
X51850000Y22088096D01*
X51773809Y22050000D01*
X51735714Y22011905D01*
X51697619Y21935715D01*
X51697619Y21859524D01*
X51735714Y21745239D01*
X52192857Y21288096D01*
X51697619Y21288096D01*
X51430952Y22088096D02*
X50897619Y22088096D01*
X51240476Y21288096D01*
X59459523Y30565096D02*
X59002380Y30565096D01*
X59230952Y29765096D02*
X59230952Y30565096D01*
X58735714Y29765096D02*
X58735714Y30565096D01*
X58430952Y30565096D01*
X58354761Y30527000D01*
X58316666Y30488905D01*
X58278571Y30412715D01*
X58278571Y30298429D01*
X58316666Y30222239D01*
X58354761Y30184143D01*
X58430952Y30146048D01*
X58735714Y30146048D01*
X57821428Y30222239D02*
X57897619Y30260334D01*
X57935714Y30298429D01*
X57973809Y30374620D01*
X57973809Y30412715D01*
X57935714Y30488905D01*
X57897619Y30527000D01*
X57821428Y30565096D01*
X57669047Y30565096D01*
X57592857Y30527000D01*
X57554761Y30488905D01*
X57516666Y30412715D01*
X57516666Y30374620D01*
X57554761Y30298429D01*
X57592857Y30260334D01*
X57669047Y30222239D01*
X57821428Y30222239D01*
X57897619Y30184143D01*
X57935714Y30146048D01*
X57973809Y30069858D01*
X57973809Y29917477D01*
X57935714Y29841286D01*
X57897619Y29803191D01*
X57821428Y29765096D01*
X57669047Y29765096D01*
X57592857Y29803191D01*
X57554761Y29841286D01*
X57516666Y29917477D01*
X57516666Y30069858D01*
X57554761Y30146048D01*
X57592857Y30184143D01*
X57669047Y30222239D01*
X45009523Y45238096D02*
X44552380Y45238096D01*
X44780952Y44438096D02*
X44780952Y45238096D01*
X44285714Y44438096D02*
X44285714Y45238096D01*
X43980952Y45238096D01*
X43904761Y45200000D01*
X43866666Y45161905D01*
X43828571Y45085715D01*
X43828571Y44971429D01*
X43866666Y44895239D01*
X43904761Y44857143D01*
X43980952Y44819048D01*
X44285714Y44819048D01*
X43447619Y44438096D02*
X43295238Y44438096D01*
X43219047Y44476191D01*
X43180952Y44514286D01*
X43104761Y44628572D01*
X43066666Y44780953D01*
X43066666Y45085715D01*
X43104761Y45161905D01*
X43142857Y45200000D01*
X43219047Y45238096D01*
X43371428Y45238096D01*
X43447619Y45200000D01*
X43485714Y45161905D01*
X43523809Y45085715D01*
X43523809Y44895239D01*
X43485714Y44819048D01*
X43447619Y44780953D01*
X43371428Y44742858D01*
X43219047Y44742858D01*
X43142857Y44780953D01*
X43104761Y44819048D01*
X43066666Y44895239D01*
D13*
X52809523Y49447620D02*
X52809523Y48733334D01*
X52857142Y48590477D01*
X52952380Y48495239D01*
X53095238Y48447620D01*
X53190476Y48447620D01*
X52380952Y49352381D02*
X52333333Y49400000D01*
X52238095Y49447620D01*
X52000000Y49447620D01*
X51904761Y49400000D01*
X51857142Y49352381D01*
X51809523Y49257143D01*
X51809523Y49161905D01*
X51857142Y49019048D01*
X52428571Y48447620D01*
X51809523Y48447620D01*
X50952380Y49447620D02*
X51142857Y49447620D01*
X51238095Y49400000D01*
X51285714Y49352381D01*
X51380952Y49209524D01*
X51428571Y49019048D01*
X51428571Y48638096D01*
X51380952Y48542858D01*
X51333333Y48495239D01*
X51238095Y48447620D01*
X51047619Y48447620D01*
X50952380Y48495239D01*
X50904761Y48542858D01*
X50857142Y48638096D01*
X50857142Y48876191D01*
X50904761Y48971429D01*
X50952380Y49019048D01*
X51047619Y49066667D01*
X51238095Y49066667D01*
X51333333Y49019048D01*
X51380952Y48971429D01*
X51428571Y48876191D01*
M02*
