G04 #@! TF.GenerationSoftware,KiCad,Pcbnew,(5.1.5)-3*
G04 #@! TF.CreationDate,2021-12-30T11:40:28+01:00*
G04 #@! TF.ProjectId,mPCIe_HAT,6d504349-655f-4484-9154-2e6b69636164,rev?*
G04 #@! TF.SameCoordinates,PX7094cd0PY79a4230*
G04 #@! TF.FileFunction,Soldermask,Bot*
G04 #@! TF.FilePolarity,Negative*
%FSLAX46Y46*%
G04 Gerber Fmt 4.6, Leading zero omitted, Abs format (unit mm)*
G04 Created by KiCad (PCBNEW (5.1.5)-3) date 2021-12-30 11:40:28*
%MOMM*%
%LPD*%
G04 APERTURE LIST*
%ADD10C,0.100000*%
%ADD11C,0.150000*%
%ADD12C,5.300000*%
%ADD13C,1.100000*%
%ADD14C,1.600000*%
%ADD15R,1.000000X1.000000*%
%ADD16O,1.000000X1.000000*%
%ADD17C,2.100000*%
%ADD18R,1.500000X1.000000*%
%ADD19R,1.000000X1.500000*%
%ADD20C,1.780000*%
%ADD21C,1.050000*%
%ADD22C,1.000000*%
%ADD23O,1.000000X2.100000*%
%ADD24O,1.000000X1.800000*%
%ADD25C,0.650000*%
%ADD26C,6.200000*%
%ADD27C,5.900000*%
%ADD28O,1.700000X1.700000*%
%ADD29R,1.700000X1.700000*%
G04 APERTURE END LIST*
D10*
X3000000Y-250000D02*
X62000000Y-250000D01*
X0Y53500000D02*
X0Y2750000D01*
X65000000Y53500000D02*
G75*
G03X62000000Y56500000I-3000000J0D01*
G01*
X0Y2750000D02*
G75*
G03X3000000Y-250000I3000000J0D01*
G01*
X45800000Y19000000D02*
G75*
G03X44000000Y19000000I-900000J0D01*
G01*
X45800000Y19000000D02*
X45800000Y4000000D01*
X3000000Y56500000D02*
G75*
G03X0Y53500000I0J-3000000D01*
G01*
X65000000Y53500000D02*
X65000000Y2750000D01*
X44000000Y19000000D02*
X44000000Y4000000D01*
X3000000Y56500000D02*
X62000000Y56500000D01*
X45800000Y4000000D02*
G75*
G02X44000000Y4000000I-900000J0D01*
G01*
X62000000Y-250000D02*
G75*
G03X65000000Y2750000I0J3000000D01*
G01*
D11*
G36*
X55325000Y41400000D02*
G01*
X55325000Y40900000D01*
X55475000Y40900000D01*
X55475000Y41400000D01*
X55325000Y41400000D01*
G37*
G36*
X39200000Y47150000D02*
G01*
X38700000Y47150000D01*
X38700000Y47000000D01*
X39200000Y47000000D01*
X39200000Y47150000D01*
G37*
G36*
X39000000Y20200000D02*
G01*
X38500000Y20200000D01*
X38500000Y20050000D01*
X39000000Y20050000D01*
X39000000Y20200000D01*
G37*
G36*
X34550000Y23700000D02*
G01*
X34050000Y23700000D01*
X34050000Y23550000D01*
X34550000Y23550000D01*
X34550000Y23700000D01*
G37*
G36*
X34500000Y26200000D02*
G01*
X34000000Y26200000D01*
X34000000Y26050000D01*
X34500000Y26050000D01*
X34500000Y26200000D01*
G37*
G36*
X34000000Y28550000D02*
G01*
X34500000Y28550000D01*
X34500000Y28700000D01*
X34000000Y28700000D01*
X34000000Y28550000D01*
G37*
G36*
X55325000Y27675000D02*
G01*
X55325000Y27175000D01*
X55475000Y27175000D01*
X55475000Y27675000D01*
X55325000Y27675000D01*
G37*
G36*
X48525000Y27475000D02*
G01*
X48525000Y26975000D01*
X48675000Y26975000D01*
X48675000Y27475000D01*
X48525000Y27475000D01*
G37*
G36*
X42125000Y27625000D02*
G01*
X42125000Y27125000D01*
X42275000Y27125000D01*
X42275000Y27625000D01*
X42125000Y27625000D01*
G37*
G36*
X55275000Y34500000D02*
G01*
X55275000Y34000000D01*
X55425000Y34000000D01*
X55425000Y34500000D01*
X55275000Y34500000D01*
G37*
G36*
X48750000Y34600000D02*
G01*
X48750000Y34100000D01*
X48900000Y34100000D01*
X48900000Y34600000D01*
X48750000Y34600000D01*
G37*
G36*
X42350000Y41400000D02*
G01*
X42350000Y40900000D01*
X42500000Y40900000D01*
X42500000Y41400000D01*
X42350000Y41400000D01*
G37*
G36*
X42175000Y34625000D02*
G01*
X42175000Y34125000D01*
X42325000Y34125000D01*
X42325000Y34625000D01*
X42175000Y34625000D01*
G37*
G36*
X48775000Y41400000D02*
G01*
X48775000Y40900000D01*
X48925000Y40900000D01*
X48925000Y41400000D01*
X48775000Y41400000D01*
G37*
D12*
X31350000Y44650000D03*
X31350000Y20450000D03*
D13*
X55250000Y45050000D03*
D14*
X55250000Y20050000D03*
D15*
X63150000Y20000000D03*
D16*
X63150000Y21270000D03*
X63150000Y25080000D03*
D15*
X63150000Y23810000D03*
D13*
X62950000Y28300000D03*
D17*
X62750000Y37100000D03*
X47850000Y16250000D03*
D18*
X55400000Y41850000D03*
X55400000Y39150000D03*
X55400000Y40450000D03*
D19*
X39650000Y47075000D03*
X38250000Y47075000D03*
X38050000Y20125000D03*
X39450000Y20125000D03*
X35000000Y23625000D03*
X33600000Y23625000D03*
X34950000Y26125000D03*
X33550000Y26125000D03*
X33550000Y28625000D03*
X34950000Y28625000D03*
D18*
X55400000Y28125000D03*
X55400000Y25425000D03*
X55400000Y26725000D03*
X48600000Y27925000D03*
X48600000Y25225000D03*
X48600000Y26525000D03*
X42200000Y28075000D03*
X42200000Y25375000D03*
X42200000Y26675000D03*
X55350000Y34950000D03*
X55350000Y32250000D03*
X55350000Y33550000D03*
X48825000Y35050000D03*
X48825000Y32350000D03*
X48825000Y33650000D03*
X42425000Y41850000D03*
X42425000Y39150000D03*
X42425000Y40450000D03*
X42250000Y35075000D03*
X42250000Y32375000D03*
X42250000Y33675000D03*
X48850000Y41850000D03*
X48850000Y39150000D03*
X48850000Y40450000D03*
D15*
X44725000Y47325000D03*
D16*
X45995000Y47325000D03*
D19*
X34900000Y41525000D03*
X33600000Y41525000D03*
X34850000Y39075000D03*
X33550000Y39075000D03*
X34825000Y36625000D03*
X33525000Y36625000D03*
X34825000Y34100000D03*
X33525000Y34100000D03*
X33550000Y31600000D03*
X34850000Y31600000D03*
X52550000Y19925000D03*
X51250000Y19925000D03*
D13*
X4850000Y20450000D03*
X4850000Y44650000D03*
D20*
X9640000Y52500000D03*
D21*
X56630000Y51230000D03*
X56630000Y53770000D03*
X38850000Y51230000D03*
X38850000Y53770000D03*
X33770000Y51230000D03*
X33770000Y53770000D03*
X43930000Y51230000D03*
X43930000Y53770000D03*
X15990000Y51230000D03*
X15990000Y53770000D03*
X46470000Y51230000D03*
X46470000Y53770000D03*
X28690000Y51230000D03*
X28690000Y53770000D03*
X51550000Y51230000D03*
X51550000Y53770000D03*
X49010000Y51230000D03*
X49010000Y53770000D03*
X54090000Y51230000D03*
X54090000Y53770000D03*
X31230000Y51230000D03*
X31230000Y53770000D03*
X18530000Y51230000D03*
X18530000Y53770000D03*
X23610000Y51230000D03*
X23610000Y53770000D03*
X41390000Y51230000D03*
X41390000Y53770000D03*
X21070000Y51230000D03*
X21070000Y53770000D03*
X36310000Y51230000D03*
X36310000Y53770000D03*
X8370000Y53770000D03*
X8370000Y51230000D03*
X13450000Y53770000D03*
X10910000Y51230000D03*
X26150000Y51230000D03*
X26150000Y53770000D03*
X10910000Y53770000D03*
X13450000Y51230000D03*
D20*
X55360000Y52500000D03*
D21*
X33580000Y2670000D03*
X31040000Y2670000D03*
X28500000Y2670000D03*
X41200000Y2670000D03*
X36120000Y2670000D03*
X38660000Y2670000D03*
D13*
X62770000Y40010000D03*
X42950000Y7050000D03*
X63450000Y15050000D03*
X63450000Y17550000D03*
D22*
X58450000Y31575000D03*
X45825000Y44425000D03*
D13*
X14500000Y20500000D03*
D23*
X16630000Y5830000D03*
X25270000Y5830000D03*
D24*
X16630000Y1660000D03*
X25270000Y1660000D03*
D25*
X23840000Y5350000D03*
X18060000Y5350000D03*
D26*
X3500000Y52500000D03*
X61500000Y52500000D03*
X3500000Y3500000D03*
D27*
X61500000Y3500000D03*
D28*
X5400000Y13410000D03*
D29*
X5400000Y15950000D03*
D19*
X52650000Y47075000D03*
X51350000Y47075000D03*
M02*
