M48
; DRILL file {KiCad (5.1.5)-3} date 12/30/2021 11:40:37 AM
; FORMAT={3:3/ absolute / metric / suppress leading zeros}
; #@! TF.CreationDate,2021-12-30T11:40:37+01:00
; #@! TF.GenerationSoftware,Kicad,Pcbnew,(5.1.5)-3
FMAT,2
METRIC,TZ
T1C0.200
T2C0.300
T3C0.550
T4C0.600
T5C0.650
T6C1.000
T7C2.600
T8C0.650
T9C1.050
T10C1.100
T11C1.600
T12C1.780
T13C2.100
T14C2.750
%
G90
G05
T1
X550Y17075
X750Y14625
X1550Y17125
X1700Y23425
X1700Y48725
X1760Y34385
X1770Y20705
X2000Y9875
X2075Y11175
X8000Y48575
X8050Y24425
X14040Y9115
X14250Y55225
X14650Y4675
X15610Y52185
X16775Y49825
X17000Y12725
X17224Y7199
X17947Y12700
X19050Y22175
X19350Y49775
X19600Y7275
X19800Y55145
X19974Y8597
X20200Y7275
X20700Y7625
X21200Y7175
X21700Y7475
X22530Y20825
X22550Y19725
X22570Y8265
X22750Y7325
X22800Y55225
X24050Y21535
X24250Y9575
X24350Y10275
X24650Y20935
X24650Y7225
X24700Y49825
X27000Y7275
X27000Y6675
X27100Y4525
X27800Y4462
X28700Y8375
X28750Y48245
X28890Y38575
X29350Y48775
X29950Y6625
X30000Y49685
X30450Y55225
X30540Y10165
X30545Y14071
X30590Y11075
X31200Y48675
X31340Y33155
X31367Y37902
X31570Y13575
X31570Y11645
X31780Y37435
X32000Y26775
X32080Y33125
X32125Y25675
X32558Y33622
X32575Y34725
X33000Y8175
X33650Y48725
X34100Y46225
X34380Y11665
X35040Y51955
X35400Y43025
X35550Y49025
X35900Y35325
X36150Y22898
X36450Y8185
X36500Y44402
X36520Y12545
X36628Y27297
X36750Y47825
X37190Y36005
X37684Y49600
X37800Y31225
X37900Y38575
X38000Y39725
X38100Y37975
X38200Y43525
X38250Y44275
X38484Y26536
X39186Y42789
X39338Y28687
X39380Y25275
X39402Y35632
X39500Y30150
X39633Y36481
X39634Y29382
X39800Y49025
X39800Y21625
X39842Y26011
X39850Y34825
X40389Y30487
X40470Y37325
X40500Y12515
X40550Y41075
X40570Y8275
X40638Y30977
X41100Y28150
X41320Y36675
X41400Y46875
X41400Y37725
X41650Y43775
X42020Y46665
X42130Y44575
X42480Y23965
X42500Y23365
X42500Y22765
X42700Y48125
X42882Y37483
X42898Y49025
X42900Y38225
X43100Y29525
X43150Y55225
X43290Y46825
X43350Y35483
X43400Y42475
X43400Y30525
X43450Y12565
X43500Y33525
X43500Y4355
X43520Y8275
X43525Y31141
X43662Y34449
X44158Y34963
X44301Y40724
X44400Y23475
X44425Y33988
X44600Y30250
X44820Y38750
X44850Y40825
X44900Y46025
X45132Y43021
X45212Y37911
X45600Y31707
X45725Y33979
X45770Y22125
X45840Y23815
X45998Y34500
X46173Y27725
X46380Y4425
X46471Y35735
X46647Y10250
X46647Y9300
X46647Y1475
X46650Y575
X46774Y44635
X46797Y36178
X46802Y30325
X46855Y36725
X46945Y43219
X47014Y28539
X47090Y22105
X47300Y44425
X47300Y34625
X47600Y48825
X47650Y24205
X47650Y30667
X47670Y32645
X47695Y27790
X47750Y40575
X47888Y45011
X48050Y37125
X48125Y49725
X48146Y29473
X48200Y55225
X48543Y29853
X48700Y21525
X48716Y28811
X48780Y35945
X48841Y36885
X48900Y42600
X48932Y30242
X49197Y45250
X49254Y21529
X49600Y23995
X49800Y43100
X49812Y29800
X49812Y21541
X49850Y30875
X49897Y45200
X50104Y14788
X50700Y12875
X50900Y16825
X51949Y16186
X52280Y16859
X52400Y39575
X52400Y38750
X52405Y33974
X52405Y30775
X52450Y21925
X52468Y37957
X52494Y43113
X52510Y37115
X52600Y22705
X52754Y15089
X52850Y55215
X52975Y41350
X53050Y43100
X53200Y22775
X53750Y47071
X53794Y15347
X53847Y44210
X54060Y31388
X54312Y16351
X54400Y27225
X54680Y48635
X54800Y23975
X54894Y31068
X54947Y24575
X54949Y30475
X55100Y14775
X55150Y37175
X55235Y15625
X55301Y29519
X55697Y42604
X55700Y30625
X55800Y49775
X55844Y16359
X55850Y29450
X56460Y44916
X56550Y39275
X57055Y43725
X57350Y32025
X57615Y31418
X57839Y33473
X57975Y41125
X58000Y40525
X58100Y25425
X58517Y450
X58550Y29500
X58550Y10175
X58550Y9325
X58550Y1425
X58647Y11275
X58650Y28325
X58700Y20225
X58750Y48975
X58868Y28864
X58950Y45179
X59511Y27014
X59725Y29775
X60275Y27000
X60484Y32574
X60591Y23984
X60700Y42975
X60700Y42225
X60700Y41475
X60739Y43664
X60800Y35350
X60875Y29675
X61050Y28275
X61200Y39175
X61625Y34175
X61995Y31023
X62028Y31609
X62056Y32471
X62200Y34207
X62800Y29857
X63050Y34575
X63470Y30972
X63519Y31546
X63550Y32307
X63600Y30257
X63932Y34057
X64470Y48915
X64480Y9205
X64500Y41405
X64650Y32700
T2
X4450Y11275
X4450Y9525
X5650Y11275
X5700Y9525
X6750Y11275
X6800Y9525
X7350Y55825
X7400Y54725
X9400Y11275
X9450Y49775
X9650Y55825
X9650Y54775
X11450Y11275
X11850Y14925
X11950Y55825
X11950Y54825
X13975Y14925
X15100Y25575
X15100Y24325
X15100Y22975
X16450Y25575
X16450Y24325
X19522Y17629
X21046Y17629
X22570Y17629
X24094Y17629
X25618Y17629
X27100Y55225
X32700Y50425
X33000Y52000
X35100Y1675
X35150Y575
X35800Y32225
X35900Y33125
X35900Y34225
X36150Y5825
X36150Y4375
X37100Y1675
X37100Y575
X37500Y5825
X37550Y4375
X38650Y5825
X38650Y525
X40000Y4425
X40100Y50775
X40150Y2025
X40200Y525
X42250Y525
X42300Y2075
X43400Y27225
X43650Y525
X44160Y27225
X44550Y26525
X44600Y25825
X44922Y27225
X7875Y14250
X7900Y11925
X7900Y10575
X7925Y15600
X10425Y14250
X10450Y15600
X10450Y11925
X10450Y10575
X12975Y14250
X12975Y10575
X13000Y15625
X13000Y11925
T3
X42950Y7050
X62950Y28300
X14500Y20500
X62770Y40010
X63450Y17550
X63450Y15050
T5
X63150Y21270
X63150Y20000
X63150Y25080
X63150Y23810
X44725Y47325
X45995Y47325
T6
X5400Y15950
X5400Y13410
T7
X31350Y44650
X31350Y20450
T8
X18060Y5350
X23840Y5350
T9
X28500Y2670
X31040Y2670
X33580Y2670
X36120Y2670
X38660Y2670
X41200Y2670
X8370Y53770
X8370Y51230
X10910Y53770
X10910Y51230
X13450Y53770
X13450Y51230
X15990Y53770
X15990Y51230
X18530Y53770
X18530Y51230
X21070Y53770
X21070Y51230
X23610Y53770
X23610Y51230
X26150Y53770
X26150Y51230
X28690Y53770
X28690Y51230
X31230Y53770
X31230Y51230
X33770Y53770
X33770Y51230
X36310Y53770
X36310Y51230
X38850Y53770
X38850Y51230
X41390Y53770
X41390Y51230
X43930Y53770
X43930Y51230
X46470Y53770
X46470Y51230
X49010Y53770
X49010Y51230
X51550Y53770
X51550Y51230
X54090Y53770
X54090Y51230
X56630Y53770
X56630Y51230
T10
X55250Y45050
X4850Y44650
X4850Y20450
T11
X55250Y20050
T12
X9640Y52500
X55360Y52500
T13
X62750Y37100
X47850Y16250
T14
X3500Y52500
X61500Y52500
X61500Y3500
X3500Y3500
T4
G00X16630Y5280
M15
G01X16630Y6380
M16
G05
G00X16630Y1260
M15
G01X16630Y2060
M16
G05
G00X25270Y5280
M15
G01X25270Y6380
M16
G05
G00X25270Y1260
M15
G01X25270Y2060
M16
G05
T0
M30
